<svg width="113" height="16" viewBox="0 0 113 16" fill="none" xmlns="http://www.w3.org/2000/svg">
<path d="M12.718 13.488C12.826 13.776 12.94 13.992 13.06 14.136C13.18 14.28 13.348 14.382 13.564 14.442C13.792 14.502 14.122 14.55 14.554 14.586V15H8.83V14.586C9.382 14.562 9.784 14.532 10.036 14.496C10.3 14.448 10.474 14.388 10.558 14.316C10.642 14.232 10.684 14.124 10.684 13.992C10.684 13.812 10.618 13.548 10.486 13.2L9.298 9.906H4.942L3.97 12.624C3.838 12.996 3.772 13.278 3.772 13.47C3.772 13.782 3.922 14.022 4.222 14.19C4.522 14.358 4.99 14.49 5.626 14.586V15H0.568V14.586C1.192 14.49 1.66 14.37 1.972 14.226C2.296 14.082 2.536 13.896 2.692 13.668C2.848 13.428 3.01 13.068 3.178 12.588L6.67 2.814L6.202 1.752L7.966 0.78L12.718 13.488ZM9.028 9.186L7.138 3.948H7.066L5.194 9.186H9.028ZM19.2905 0.959999C19.8305 0.959999 20.3165 1.05 20.7485 1.23C21.1925 1.41 21.6125 1.692 22.0085 2.076L22.5845 1.14H22.9445L23.1065 5.1H22.6385C22.3505 3.96 21.9365 3.114 21.3965 2.562C20.8685 2.01 20.1965 1.734 19.3805 1.734C18.6965 1.734 18.1565 1.92 17.7605 2.292C17.3645 2.652 17.1665 3.15 17.1665 3.786C17.1665 4.302 17.2985 4.752 17.5625 5.136C17.8265 5.52 18.1505 5.844 18.5345 6.108C18.9185 6.36 19.4465 6.666 20.1185 7.026C20.8625 7.422 21.4625 7.776 21.9185 8.088C22.3745 8.4 22.7585 8.808 23.0705 9.312C23.3945 9.804 23.5565 10.398 23.5565 11.094C23.5565 11.85 23.3645 12.54 22.9805 13.164C22.6085 13.776 22.0925 14.262 21.4325 14.622C20.7845 14.982 20.0645 15.162 19.2725 15.162C18.7805 15.162 18.3065 15.09 17.8505 14.946C17.3945 14.802 16.9085 14.574 16.3925 14.262L15.6725 15H15.3125L14.9885 10.392L15.4385 10.284C15.7985 11.736 16.2725 12.786 16.8605 13.434C17.4485 14.07 18.2345 14.388 19.2185 14.388C20.0465 14.388 20.7005 14.19 21.1805 13.794C21.6605 13.398 21.9005 12.852 21.9005 12.156C21.9005 11.628 21.7625 11.172 21.4865 10.788C21.2105 10.392 20.8685 10.062 20.4605 9.798C20.0525 9.522 19.5005 9.204 18.8045 8.844C18.0245 8.436 17.4005 8.07 16.9325 7.746C16.4765 7.422 16.0865 7.014 15.7625 6.522C15.4385 6.03 15.2765 5.442 15.2765 4.758C15.2765 4.038 15.4505 3.39 15.7985 2.814C16.1465 2.238 16.6265 1.788 17.2385 1.464C17.8505 1.128 18.5345 0.959999 19.2905 0.959999ZM37.1039 1.896V14.244L38.7059 14.622V15H33.5939V14.586L35.2139 14.244V8.07H28.4099V14.244L30.0119 14.586V15H24.8999V14.586L26.5199 14.244V1.896L24.8999 1.554V1.14H30.0119V1.554L28.4099 1.896V7.35H35.2139V1.896L33.5939 1.554V1.14H38.7059V1.59L37.1039 1.896ZM51.2189 13.416C52.3109 13.416 53.3069 13.23 54.2069 12.858C55.1069 12.474 55.8089 11.958 56.3129 11.31C56.8289 10.65 57.0869 9.924 57.0869 9.132C57.0869 8.436 56.8709 7.896 56.4389 7.512C56.0069 7.116 55.4249 6.918 54.6929 6.918C54.3209 6.918 53.9669 6.978 53.6309 7.098C53.3069 7.218 53.0429 7.374 52.8389 7.566C52.6469 7.758 52.5509 7.95 52.5509 8.142C52.5509 8.31 52.6049 8.43 52.7129 8.502C52.8209 8.574 52.9829 8.64 53.1989 8.7C53.4509 8.772 53.6369 8.856 53.7569 8.952C53.8889 9.048 53.9549 9.21 53.9549 9.438C53.9549 9.666 53.8589 9.846 53.6669 9.978C53.4749 10.11 53.2469 10.176 52.9829 10.176C52.6469 10.176 52.3409 10.044 52.0649 9.78C51.7889 9.516 51.6509 9.156 51.6509 8.7C51.6509 8.172 51.7769 7.746 52.0289 7.422C52.2809 7.086 52.7369 6.798 53.3969 6.558C54.0689 6.318 55.0469 6.09 56.3309 5.874C57.1949 5.73 57.8849 5.586 58.4009 5.442C58.9289 5.286 59.3549 5.052 59.6789 4.74C60.0029 4.416 60.1649 3.978 60.1649 3.426C60.1649 3.018 60.0569 2.706 59.8409 2.49C59.6369 2.262 59.3789 2.148 59.0669 2.148C58.8749 2.148 58.7069 2.19 58.5629 2.274C58.4309 2.358 58.2809 2.478 58.1129 2.634C57.9449 2.79 57.8009 2.904 57.6809 2.976C57.5609 3.048 57.4169 3.084 57.2489 3.084C57.0329 3.084 56.8589 3.024 56.7269 2.904C56.6069 2.772 56.5469 2.598 56.5469 2.382C56.5469 1.974 56.7509 1.638 57.1589 1.374C57.5669 1.098 58.0649 0.959999 58.6529 0.959999C59.3249 0.959999 59.8589 1.146 60.2549 1.518C60.6509 1.878 60.8489 2.412 60.8489 3.12C60.8489 4.188 60.5069 5.034 59.8229 5.658C59.1509 6.27 58.1549 6.684 56.8349 6.9L56.8169 6.972C57.2249 7.14 57.5429 7.44 57.7709 7.872C57.9989 8.304 58.1129 8.814 58.1129 9.402C58.1129 10.458 57.7709 11.43 57.0869 12.318C56.4149 13.194 55.5029 13.89 54.3509 14.406C53.2109 14.922 51.9689 15.18 50.6249 15.18C49.4849 15.18 48.4709 14.988 47.5829 14.604C46.7069 14.208 46.0229 13.662 45.5309 12.966C45.0509 12.258 44.8109 11.448 44.8109 10.536C44.8109 9.684 45.0089 8.928 45.4049 8.268C45.8009 7.596 46.3649 7.056 47.0969 6.648C46.9529 6.444 46.8389 6.198 46.7549 5.91C46.6709 5.622 46.6289 5.328 46.6289 5.028C46.6289 4.464 46.7729 3.936 47.0609 3.444C47.3489 2.94 47.7329 2.544 48.2129 2.256C48.6929 1.956 49.2089 1.806 49.7609 1.806C50.1809 1.806 50.5709 1.896 50.9309 2.076C51.3029 2.244 51.5909 2.478 51.7949 2.778C52.0109 3.066 52.1189 3.384 52.1189 3.732C52.1189 4.068 52.0229 4.338 51.8309 4.542C51.6509 4.746 51.4109 4.848 51.1109 4.848C50.7749 4.848 50.5589 4.758 50.4629 4.578C50.3669 4.398 50.3069 4.122 50.2829 3.75C50.2589 3.366 50.1929 3.078 50.0849 2.886C49.9769 2.694 49.7369 2.598 49.3649 2.598C49.0169 2.598 48.6929 2.7 48.3929 2.904C48.0929 3.108 47.8529 3.384 47.6729 3.732C47.4929 4.068 47.4029 4.44 47.4029 4.848C47.4029 5.112 47.4269 5.37 47.4749 5.622C47.5349 5.862 47.6189 6.066 47.7269 6.234C48.0509 6.102 48.3929 6.036 48.7529 6.036C49.0889 6.036 49.3589 6.114 49.5629 6.27C49.7789 6.426 49.8869 6.624 49.8869 6.864C49.8869 7.128 49.7909 7.344 49.5989 7.512C49.4189 7.68 49.1789 7.764 48.8789 7.764C48.6629 7.764 48.4229 7.716 48.1589 7.62C47.9069 7.512 47.6789 7.374 47.4749 7.206C47.0429 7.374 46.6829 7.692 46.3949 8.16C46.1189 8.616 45.9809 9.132 45.9809 9.708C45.9809 10.428 46.2029 11.07 46.6469 11.634C47.1029 12.198 47.7269 12.636 48.5189 12.948C49.3109 13.26 50.2109 13.416 51.2189 13.416ZM69.7122 1.14C70.5402 1.14 71.2242 1.2 71.7642 1.32C72.3162 1.44 72.7782 1.626 73.1502 1.878C73.5702 2.178 73.9002 2.562 74.1402 3.03C74.3802 3.486 74.5002 3.978 74.5002 4.506C74.5002 5.286 74.2422 5.946 73.7262 6.486C73.2102 7.026 72.4782 7.392 71.5302 7.584V7.656C72.6102 7.776 73.4742 8.172 74.1222 8.844C74.7822 9.516 75.1122 10.344 75.1122 11.328C75.1122 11.88 75.0042 12.396 74.7882 12.876C74.5842 13.356 74.2902 13.752 73.9062 14.064C73.4862 14.4 72.9762 14.64 72.3762 14.784C71.7762 14.928 70.9902 15 70.0182 15H64.3842V14.586L65.9142 14.244V1.896L64.3842 1.554V1.14H69.7122ZM68.9202 7.278C69.5322 7.278 70.0362 7.26 70.4322 7.224C71.0922 7.152 71.5962 6.876 71.9442 6.396C72.3042 5.916 72.4842 5.268 72.4842 4.452C72.4842 4.032 72.4302 3.678 72.3222 3.39C72.2262 3.09 72.0582 2.82 71.8182 2.58C71.5542 2.316 71.2422 2.13 70.8822 2.022C70.5222 1.914 70.0122 1.86 69.3522 1.86H67.8042V7.278H68.9202ZM67.8042 13.236C67.8042 13.656 67.9122 13.944 68.1282 14.1C68.3562 14.244 68.7762 14.316 69.3882 14.316C70.6362 14.316 71.5542 14.064 72.1422 13.56C72.7302 13.044 73.0242 12.246 73.0242 11.166C73.0242 10.086 72.7242 9.288 72.1242 8.772C71.5242 8.256 70.5942 7.998 69.3342 7.998H67.8042V13.236ZM86.9442 10.788L86.2782 15H76.3422V14.586L77.8722 14.244V1.896L76.3422 1.554V1.14H86.3502L86.6562 5.1H86.2242C85.8642 3.804 85.4322 2.724 84.9282 1.86H79.7622V7.332H82.9842C83.2842 6.696 83.5062 5.976 83.6502 5.172H84.0822V10.212H83.6502C83.5422 9.468 83.3202 8.748 82.9842 8.052H79.7622V14.28H84.8382C85.1622 13.752 85.4262 13.23 85.6302 12.714C85.8462 12.198 86.0862 11.556 86.3502 10.788H86.9442ZM99.1011 13.488C99.2091 13.776 99.3231 13.992 99.4431 14.136C99.5631 14.28 99.7311 14.382 99.9471 14.442C100.175 14.502 100.505 14.55 100.937 14.586V15H95.2131V14.586C95.7651 14.562 96.1671 14.532 96.4191 14.496C96.6831 14.448 96.8571 14.388 96.9411 14.316C97.0251 14.232 97.0671 14.124 97.0671 13.992C97.0671 13.812 97.0011 13.548 96.8691 13.2L95.6811 9.906H91.3251L90.3531 12.624C90.2211 12.996 90.1551 13.278 90.1551 13.47C90.1551 13.782 90.3051 14.022 90.6051 14.19C90.9051 14.358 91.3731 14.49 92.0091 14.586V15H86.9511V14.586C87.5751 14.49 88.0431 14.37 88.3551 14.226C88.6791 14.082 88.9191 13.896 89.0751 13.668C89.2311 13.428 89.3931 13.068 89.5611 12.588L93.0531 2.814L92.5851 1.752L94.3491 0.78L99.1011 13.488ZM95.4111 9.186L93.5211 3.948H93.4491L91.5771 9.186H95.4111ZM103.568 10.914C103.568 12.03 103.862 12.888 104.45 13.488C105.05 14.076 105.872 14.37 106.916 14.37C107.564 14.37 108.134 14.274 108.626 14.082C109.118 13.89 109.496 13.614 109.76 13.254C110 12.93 110.174 12.48 110.282 11.904C110.39 11.328 110.444 10.56 110.444 9.6V1.896L108.842 1.554V1.14H112.784V1.554L111.164 1.896V10.356C111.164 11.112 111.11 11.748 111.002 12.264C110.894 12.78 110.72 13.212 110.48 13.56C110.132 14.076 109.616 14.478 108.932 14.766C108.248 15.042 107.45 15.18 106.538 15.18C105.614 15.18 104.786 15.036 104.054 14.748C103.334 14.46 102.776 14.052 102.38 13.524C102.14 13.2 101.96 12.822 101.84 12.39C101.732 11.946 101.678 11.364 101.678 10.644V1.896L100.058 1.554V1.14H105.17V1.554L103.568 1.896V10.914Z" fill="#EE7632"/>
</svg>
