<svg width="87" height="87" viewBox="0 0 87 87" fill="none" xmlns="http://www.w3.org/2000/svg">
<path d="M72.1049 85.9968C72.0754 85.9533 72.0557 85.9011 72.0114 85.875C71.662 85.6357 71.3126 85.4007 70.9633 85.1657C70.3383 84.7479 69.6839 84.3693 68.9654 84.0734C68.2372 83.7732 67.4892 83.5773 66.6969 83.6035C66.2442 83.6165 65.7915 83.7253 65.3536 83.8341C64.3546 84.0821 63.3656 84.2257 62.3273 83.982C61.6039 83.8123 60.9445 83.5425 60.354 83.1465C60.1424 83.0029 59.9259 82.9855 59.6454 83.016C58.3217 83.1683 56.9882 83.264 55.6497 83.1988C54.8575 83.1596 54.0554 83.1465 53.273 83.0421C52.3134 82.9116 51.3637 82.707 50.414 82.5199C49.4249 82.3284 48.49 81.989 47.5846 81.6148C45.7245 80.8445 44.0908 79.7958 42.7327 78.425C42.3341 78.0247 41.9847 77.5808 41.5861 77.1805C41.4631 77.0543 41.2712 76.9411 41.0842 76.8976C39.977 76.6496 38.919 76.3015 37.8857 75.8706C35.755 74.9786 33.9293 73.7427 32.4826 72.0978C31.9758 71.519 31.5477 70.8793 31.1146 70.2484C30.8194 69.8176 30.9523 69.1561 31.3508 68.7949C31.5969 68.5686 31.5821 68.4947 31.2869 68.3119C30.1945 67.6417 29.1217 66.9585 28.1523 66.1535C27.9604 65.9925 27.8029 66.0447 27.7242 66.2753C27.4191 67.1674 27.1091 68.0595 26.7942 68.9472C26.5432 69.6565 26.2873 70.3659 26.0167 71.0708C25.751 71.754 25.4557 72.4285 25.1752 73.1074C24.9883 73.5599 24.8062 74.0212 24.6143 74.4694C24.383 74.996 24.1763 75.5312 23.8958 76.036C23.6104 76.5452 23.079 76.8019 22.4491 76.7888C21.8488 76.7801 21.3764 76.519 21.0811 76.0317C20.8253 75.6096 20.8351 75.2005 21.0467 74.761C21.3419 74.1431 21.5929 73.5077 21.8586 72.8767C22.144 72.2066 22.4393 71.5408 22.705 70.8663C22.9806 70.17 23.2315 69.4694 23.4973 68.7688C23.6892 68.2597 23.8958 67.7592 24.0779 67.2501C24.2846 66.6713 24.4667 66.0839 24.6586 65.5008C24.7816 65.1265 24.8997 64.7479 25.0178 64.3737C25.1113 64.0734 25.2491 63.7775 25.2835 63.4729C25.2983 63.2988 25.1506 63.103 25.0571 62.9246C24.757 62.3415 24.447 61.7627 24.1468 61.1796C23.8023 60.5138 23.6744 59.7958 23.5071 59.0865C23.4825 58.9733 23.3939 58.8602 23.3053 58.7775C22.7148 58.2249 22.0702 57.7114 21.524 57.1283C21.027 56.593 20.594 56.0055 20.2052 55.405C19.8559 54.8611 19.5508 54.2866 19.3244 53.6948C19.0784 53.0551 18.9258 52.385 18.7634 51.7192C18.5568 50.8793 18.4928 50.0177 18.5814 49.1648C18.665 48.3467 18.8323 47.5329 18.975 46.7148C19.0144 46.4799 19.0882 46.2492 19.167 46.0186C19.2408 45.788 19.0587 45.6487 18.9554 45.4877C18.419 44.6522 17.8482 43.8341 17.3463 42.9812C16.8689 42.1761 16.4408 41.345 16.0324 40.5094C15.7273 39.8785 15.4862 39.2257 15.2303 38.5773C15.0482 38.1074 14.8563 37.633 14.7284 37.15C14.4971 36.2623 14.2658 35.3702 14.1182 34.4694C13.7738 32.3589 13.7639 30.2309 13.8771 28.1073C13.9411 26.9672 14.0887 25.8228 14.2511 24.687C14.4036 23.6382 14.6004 22.5939 14.8219 21.5538C14.9793 20.8228 15.2008 20.1004 15.4075 19.378C15.5846 18.7601 15.7765 18.1465 15.9832 17.5373C16.1603 17.0194 16.3719 16.5103 16.5786 15.9968C16.7558 15.5529 16.9378 15.1134 17.1347 14.6783C17.3266 14.2475 17.5332 13.8254 17.7498 13.4033C17.9958 12.9246 18.2517 12.4459 18.5223 11.9803C18.852 11.4059 19.1817 10.8314 19.5557 10.2831C19.9543 9.69568 20.3922 9.12562 20.8351 8.55991C21.652 7.50682 22.582 6.53205 23.6055 5.62692C24.5503 4.79576 25.5541 4.02553 26.681 3.3989C27.5668 2.90716 28.4919 2.47635 29.4268 2.0673C30.2387 1.71482 31.0802 1.41021 31.9315 1.1317C32.5663 0.922827 33.2257 0.770521 33.8801 0.609511C34.2394 0.518127 34.6084 0.448503 34.9775 0.38758C35.5138 0.296196 36.0601 0.22657 36.5964 0.139538C36.685 0.126483 36.7637 0.0525064 36.8474 0.00463867C38.1415 0.00463867 39.4406 0.00463867 40.7348 0.00463867C40.8185 0.0525064 40.8923 0.126482 40.9809 0.143888C41.3351 0.204811 41.6993 0.217866 42.0487 0.296195C42.7277 0.448501 43.4166 0.600809 44.076 0.814038C44.7797 1.04032 45.4539 1.34058 46.1428 1.60603C46.3494 1.68436 46.566 1.8062 46.7726 1.7975C47.0482 1.7888 47.3238 1.67131 47.5993 1.60603C48.3424 1.42762 49.0756 1.22309 49.8284 1.07948C50.852 0.883662 51.8853 0.718302 52.9187 0.574699C54.9067 0.296196 56.9095 0.135185 58.9221 0.317953C59.8177 0.400633 60.7182 0.49637 61.5941 0.670435C62.4552 0.840148 63.2868 1.09254 64.0988 1.41891C64.8959 1.73658 65.6537 2.10212 66.3426 2.56339C68.183 3.8036 69.5313 5.37018 70.299 7.3197C70.6336 8.16391 70.9141 9.01683 70.9928 9.90891C71.0223 10.2309 71.2044 10.4137 71.475 10.5878C72.1492 11.0229 72.8332 11.4494 73.463 11.9281C74.6588 12.8375 75.7906 13.808 76.7108 14.9481C77.3357 15.7183 77.9114 16.519 78.4724 17.3197C78.7873 17.7679 79.0481 18.2466 79.304 18.7209C79.5747 19.2127 79.8355 19.7131 80.0667 20.2222C80.2783 20.6922 80.4653 21.1709 80.6277 21.6539C80.8442 22.2849 81.0755 22.9115 81.2231 23.5556C81.4495 24.5216 81.5381 25.5051 81.5725 26.4929C81.666 29.1256 81.2871 31.7322 80.9623 34.3389C80.8836 34.9655 80.8245 35.5965 80.8541 36.2231C80.8934 37.0543 81.1739 37.8463 81.6709 38.5643C82.0941 39.1691 82.5468 39.7523 82.9651 40.3571C83.3834 40.9533 83.7918 41.5538 84.1756 42.1674C84.5447 42.7636 84.9187 43.3597 85.2237 43.982C85.5436 44.6391 85.8241 45.3136 86.0357 46.0012C86.1931 46.519 86.2817 47.0673 86.2817 47.6069C86.2817 48.5034 85.7011 49.2431 84.6775 49.4825C84.3478 49.5608 84.0182 49.6522 83.6786 49.7044C82.8814 49.8306 82.0843 49.9524 81.2822 50.0569C80.9033 50.1047 80.8393 50.1352 80.8492 50.4703C80.8639 51.2101 80.8885 51.9498 80.8984 52.6896C80.9033 53.103 80.8442 53.5077 80.6228 53.8906C80.4161 54.2475 80.1209 54.5347 79.7863 54.7871C79.6682 54.8741 79.5944 54.9655 79.678 55.1048C79.7715 55.2571 79.8699 55.405 79.9487 55.566C80.3325 56.3624 80.3079 57.1326 79.7272 57.8506C79.3237 58.3511 78.8956 58.8384 78.4773 59.3302C77.7933 60.1265 77.1684 60.9577 76.6566 61.8541C76.3712 62.3545 76.0809 62.868 75.9087 63.4076C75.6872 64.1082 75.5642 64.835 75.4363 65.5573C75.3428 66.0795 75.082 66.5147 74.6785 66.8889C73.9404 67.5721 72.9808 67.8245 71.9671 67.929C70.3679 68.0943 68.7735 68.0029 67.189 67.7941C65.9441 67.6287 64.6942 67.4546 63.4492 67.2719C62.9571 67.2022 62.47 67.1065 61.9779 67.0151C61.0577 66.8454 60.1375 66.6626 59.2124 66.4973C58.2086 66.3188 57.1998 66.1622 56.196 65.9881C55.9598 65.9446 55.7974 66.0229 55.7236 66.2014C55.5415 66.6583 55.3643 67.1195 55.2216 67.5852C55.0937 68.0029 55.0002 68.4294 54.9018 68.8559C54.6951 69.7218 54.4737 70.5834 54.2965 71.4538C54.0899 72.4677 53.9324 73.486 53.7454 74.4999C53.706 74.7175 53.8045 74.848 53.9964 74.9481C54.2621 75.0874 54.5327 75.2223 54.7985 75.3702C56.2501 76.1709 57.5492 77.1457 58.74 78.2292C58.8827 78.3598 59.0254 78.4947 59.1829 78.6035C59.2469 78.647 59.3699 78.66 59.4486 78.6383C60.2605 78.412 61.0528 78.1378 61.8746 77.9464C62.7849 77.7331 63.71 77.5634 64.6351 77.4285C66.505 77.1544 68.3651 77.1109 70.1956 77.6722C70.791 77.855 71.3373 78.103 71.8392 78.4337C72.5921 78.9298 73.2219 79.5304 73.5959 80.3006C73.837 80.7967 74.0781 81.3058 74.2012 81.828C74.4324 82.7897 74.4718 83.7645 74.2651 84.7436C74.1618 85.231 73.901 85.5834 73.4188 85.8228C73.34 85.8619 73.2908 85.9403 73.2268 86.0012C72.8233 85.9968 72.4641 85.9968 72.1049 85.9968ZM78.3789 27.3197C78.3543 26.841 78.3445 26.3362 78.3002 25.8271C78.2215 24.9002 78.0787 23.982 77.754 23.0943C77.5916 22.6461 77.439 22.1979 77.257 21.7583C77.0847 21.3362 76.8978 20.9185 76.6862 20.5138C76.4352 20.0351 76.135 19.5782 75.8792 19.1039C75.4412 18.2988 74.895 17.5503 74.2848 16.841C73.8272 16.3101 73.3203 15.8184 72.8283 15.3136C72.779 15.2657 72.7052 15.2353 72.6413 15.2005C72.6019 15.2614 72.5478 15.3136 72.5232 15.3789C72.3116 15.9185 72.1246 16.4624 71.8884 16.9933C71.5784 17.7026 71.0863 18.3206 70.5401 18.8993C69.5608 19.9394 68.3799 20.7662 67.066 21.4581C66.0376 21.9977 64.955 22.4459 63.838 22.8114C63.0014 23.0856 62.1403 23.2945 61.289 23.5251C60.9741 23.6078 60.6542 23.6687 60.3393 23.747C60.1228 23.8036 59.9505 23.9037 59.9456 24.1343C59.9112 25.0656 59.7832 25.9881 59.4289 26.8671C59.1829 27.472 58.9467 28.0856 58.6072 28.6469C57.9527 29.7349 57.1063 30.7053 56.0041 31.4755C55.4037 31.8976 54.7738 32.2936 54.1145 32.6374C53.1697 33.1335 53.1647 33.1204 53.0466 34.0952C52.9925 34.5608 52.8744 35.0264 52.7366 35.479C52.5644 36.036 52.3774 36.593 52.1363 37.1282C51.8214 37.8376 51.5015 38.5599 51.0833 39.2214C50.6256 39.9437 50.0843 40.6313 49.5184 41.2971C48.5982 42.385 47.4665 43.2901 46.2215 44.0778C45.7393 44.3867 45.2373 44.6739 44.7108 44.9263C43.9825 45.2788 43.2346 45.6095 42.4768 45.9098C42.0191 46.0926 41.9699 46.1317 42.2012 46.5147C42.2061 46.519 42.2061 46.5277 42.2111 46.5364C42.5506 47.2066 42.895 47.8767 43.2297 48.5512C43.643 49.3867 43.8694 50.2701 44.0711 51.1535C44.3467 52.3719 44.4845 53.6078 44.5189 54.848C44.5287 55.2179 44.6714 55.4616 44.9962 55.6879C46.2756 56.5799 47.4025 57.6113 48.3867 58.7601C49.0264 59.5042 49.6316 60.2701 50.045 61.1361C50.3501 61.7758 50.6748 62.4111 50.8766 63.0769C51.0783 63.7514 51.1817 64.4564 51.2555 65.1526C51.3736 66.2753 51.2112 67.3894 50.8618 68.4642C50.6453 69.1344 50.3402 69.7871 50.0056 70.4224C49.6907 71.0143 49.297 71.5756 48.9181 72.1413C48.7163 72.4416 48.4703 72.7114 48.2538 73.0029C48.1652 73.1204 48.1406 73.2423 48.362 73.2771C49.0116 73.3815 49.6661 73.486 50.3156 73.5904C50.5124 73.6209 50.6355 73.5556 50.665 73.3772C50.7486 72.9072 50.8323 72.4329 50.9258 71.9629C51.1079 71.0447 51.2899 70.1222 51.4818 69.204C51.5507 68.8776 51.6196 68.5469 51.718 68.2249C51.9149 67.5591 52.1215 66.8976 52.3282 66.2362C52.5447 65.5443 52.8203 64.8785 53.2336 64.2518C53.7995 63.4076 54.6065 62.9855 55.7186 63.09C56.3633 63.1509 57.003 63.2336 57.6378 63.338C58.6022 63.4903 59.5667 63.6644 60.5312 63.8384C61.4612 64.0081 62.3863 64.204 63.3213 64.3563C64.4383 64.539 65.5652 64.7175 66.692 64.848C67.9517 64.996 69.2164 65.1048 70.481 65.2005C71.0076 65.2397 71.5439 65.2135 72.0557 65.0351C72.2279 64.9742 72.2968 64.8872 72.3116 64.7305C72.3263 64.4912 72.3411 64.2518 72.3903 64.0169C72.5724 63.19 72.7938 62.3763 73.2121 61.6148C73.6304 60.8576 74.0191 60.0786 74.5308 59.365C75.1952 58.4381 75.9628 57.5678 76.6911 56.6757C76.7993 56.5408 76.8239 56.4146 76.6911 56.284C76.4598 56.0665 76.2236 55.8576 76.0022 55.6357C75.7512 55.3833 75.451 55.1483 75.2788 54.8524C74.8163 54.0517 75.3969 53.177 76.263 52.9464C76.5582 52.868 76.8682 52.8202 77.1733 52.7636C77.5867 52.6853 77.6654 52.5808 77.6654 52.2109C77.6703 51.0142 77.6851 49.8175 77.7048 48.6252C77.7097 48.4859 77.7589 48.338 77.8327 48.2118C78.1427 47.6591 78.6791 47.4285 79.3532 47.3632C80.362 47.2675 81.3708 47.1587 82.3746 47.0238C83.0094 46.9411 83.0537 46.8236 82.7929 46.2927C82.5173 45.7314 82.2663 45.157 81.9613 44.6043C81.6316 43.9994 81.2871 43.3989 80.8984 42.8245C80.2045 41.8106 79.4467 40.8271 78.7578 39.8132C78.3888 39.2692 78.1083 38.6774 77.9508 38.0508C77.9114 37.8941 77.8278 37.8158 77.6457 37.7897C76.6911 37.6678 75.7315 37.546 74.7769 37.4024C74.5112 37.3632 74.2258 37.2936 74.0043 37.1631C73.217 36.7105 72.9906 35.8141 73.6353 35.1047C74.0338 34.6609 74.5801 34.5303 75.2001 34.613C75.8792 34.7 76.5631 34.7958 77.2422 34.8785C77.5916 34.922 77.6556 34.8611 77.69 34.5521C77.7933 33.6295 77.877 32.7026 78.0197 31.7845C78.2411 30.318 78.3199 28.8384 78.3789 27.3197ZM16.9083 29.9568C16.9378 29.9568 16.9624 29.9611 16.992 29.9611C16.992 30.3006 16.9723 30.6443 16.9969 30.9838C17.0707 32.0891 17.0756 33.2031 17.3167 34.2953C17.4348 34.8219 17.5037 35.3528 17.6267 35.8793C17.7153 36.2449 17.8482 36.606 17.9761 36.9629C18.1533 37.459 18.3403 37.9507 18.542 38.4424C18.7093 38.8558 18.8963 39.2649 19.0882 39.6739C19.2752 40.0569 19.472 40.4398 19.6836 40.8141C20.033 41.4407 20.3873 42.0673 20.7662 42.6852C21.0123 43.0856 21.2878 43.4685 21.5634 43.8558C21.6126 43.9255 21.7012 43.9733 21.775 44.0299C21.8045 43.9472 21.8586 43.8602 21.8537 43.7775C21.8488 43.4511 21.8143 43.1248 21.8094 42.7984C21.7947 41.754 21.7553 40.7096 21.9816 39.6739C22.149 38.9124 22.2966 38.1465 22.518 37.4024C22.7296 36.6844 22.9855 35.9707 23.3004 35.2832C23.6154 34.5956 23.9893 33.9211 24.4027 33.2771C24.8652 32.5634 25.3721 31.8671 25.9134 31.197C26.7204 30.1961 27.675 29.3084 28.7084 28.4859C28.7822 28.425 28.8511 28.3423 28.8806 28.2553C29.1119 27.559 29.3186 26.8628 29.5548 26.1665C29.727 25.6487 29.8992 25.1265 30.1157 24.6174C30.3716 24.0168 30.6472 23.4207 30.9572 22.8375C31.3213 22.1456 31.7101 21.4624 32.1185 20.7879C32.7287 19.7871 33.452 18.8471 34.2541 17.955C35.194 16.9063 36.2323 15.9446 37.4379 15.1265C37.7577 14.9089 37.9349 14.6522 37.9841 14.2953C38.0431 13.8645 38.1416 13.4381 38.235 13.0116C38.3089 12.6852 38.3876 12.3589 38.486 12.0412C38.6632 11.4842 38.8255 10.9228 39.047 10.3789C39.293 9.77401 39.5686 9.17784 39.8786 8.59907C40.2772 7.85495 40.6708 7.10212 41.158 6.40151C41.7731 5.51378 42.4768 4.67827 43.146 3.821C43.269 3.66434 43.2493 3.56426 43.0574 3.49898C42.1225 3.19437 41.1629 2.98114 40.1689 2.91151C38.1022 2.76356 36.0748 2.92457 34.1016 3.49898C33.142 3.77749 32.1726 4.06034 31.2475 4.41717C30.3765 4.7566 29.54 5.17435 28.7182 5.60081C27.5766 6.19698 26.5826 6.96287 25.6526 7.79402C24.6832 8.66435 23.8171 9.60864 23.0642 10.6313C22.6115 11.2449 22.1982 11.8758 21.7848 12.5068C21.5092 12.9333 21.2583 13.3728 21.0172 13.8123C20.7318 14.3388 20.4562 14.8697 20.2003 15.4093C19.9887 15.8532 19.8067 16.3101 19.6197 16.767C19.413 17.2718 19.2063 17.7723 19.0292 18.2858C18.8225 18.8863 18.6355 19.4955 18.4633 20.1047C18.2468 20.8576 18.0155 21.606 17.8629 22.3676C17.6415 23.4598 17.4447 24.5521 17.3118 25.653C17.1297 27.0934 17.0362 28.5295 16.9083 29.9568ZM57.062 3.08123C56.4223 3.10298 55.7826 3.10734 55.1478 3.1552C54.4638 3.20742 53.7799 3.28575 53.0959 3.37278C52.5841 3.43806 52.0773 3.52944 51.5753 3.62083C50.9898 3.72962 50.4042 3.83841 49.8284 3.96896C49.1395 4.12126 48.4506 4.29533 47.7666 4.46504C47.3631 4.56513 46.9695 4.67827 46.5709 4.79141C46.4528 4.82622 46.3052 4.86974 46.2363 4.94807C45.6015 5.66609 44.9519 6.3754 44.3614 7.11952C43.953 7.63301 43.6135 8.18567 43.2739 8.73832C42.9935 9.20395 42.7376 9.68262 42.5063 10.17C42.2898 10.6269 42.0979 11.1012 41.9306 11.5712C41.7141 12.163 41.4926 12.7549 41.345 13.3597C41.1924 13.9733 41.1186 14.6043 41.0251 15.2266C40.72 17.2979 41.0202 19.3301 41.591 21.3406C41.6648 21.606 41.7583 21.8715 41.8617 22.1282C42.0634 22.633 42.2898 23.1291 42.4915 23.6295C42.5555 23.7906 42.649 23.821 42.8015 23.734C42.8754 23.6905 42.9393 23.6339 43.0131 23.586C43.6184 23.19 44.204 22.7723 44.8338 22.4067C45.3456 22.1108 45.9016 21.8758 46.4331 21.6104C46.5266 21.5625 46.6201 21.4885 46.6841 21.4102C47.4271 20.4746 48.1406 19.5216 48.9083 18.5991C50.2172 17.0281 51.6737 15.566 53.2632 14.2083C54.2572 13.3597 55.3004 12.5677 56.4322 11.8758C57.1112 11.4624 57.8444 11.1274 58.553 10.7488C59.5864 10.1961 60.7132 9.84798 61.8746 9.60429C63.71 9.217 65.5307 9.27792 67.3268 9.80447C67.6417 9.89585 67.7155 9.83493 67.6565 9.54337C67.499 8.72092 67.1595 7.95939 66.7215 7.22831C66.2344 6.42327 65.6045 5.73136 64.827 5.13954C64.1184 4.60429 63.336 4.16913 62.4552 3.89933C61.7761 3.69045 61.0922 3.48593 60.3934 3.34232C59.2961 3.13345 58.184 3.07252 57.062 3.08123ZM27.7439 51.6539C27.739 51.7105 27.7291 51.7714 27.7341 51.828C27.7783 52.4764 27.8768 53.0638 28.5657 53.4947C30.0468 54.4215 31.4886 55.4007 32.9452 56.358C33.9884 57.0456 35.0267 57.7375 36.065 58.4294C36.2618 58.5599 36.2913 58.5382 36.3848 58.3424C36.7047 57.6461 36.9999 56.9411 37.3837 56.271C37.8807 55.4137 38.5352 54.6391 39.229 53.895C39.5932 53.5034 40.041 53.2553 40.6266 53.2858C41.2318 53.3162 41.2367 53.3336 41.1383 52.8027C41.0202 52.1674 40.9464 51.519 40.7594 50.9011C40.538 50.1874 40.228 49.4912 39.9327 48.7949C39.6178 48.0508 39.1355 47.385 38.5893 46.7627C37.7922 45.8532 36.8425 45.0917 35.7058 44.5347C35.1497 44.2605 34.5494 44.0647 33.9835 43.8123C33.6931 43.6861 33.5554 43.8036 33.3979 43.9864C32.9058 44.5477 32.4433 45.1352 31.8872 45.64C31.1245 46.3319 30.2929 46.9672 29.476 47.6156C29.0135 47.9812 28.4919 48.2553 28.3098 48.8732C28.0391 49.7958 27.8226 50.7096 27.7439 51.6539ZM69.4772 14.3301C69.4378 14.2736 69.4034 14.1604 69.3197 14.0995C69.0146 13.8689 68.7046 13.6469 68.3798 13.4381C67.4793 12.8593 66.4853 12.459 65.388 12.2979C64.2218 12.1326 63.0654 12.2153 61.9385 12.5286C60.7428 12.8593 59.6454 13.3684 58.6121 13.9864C57.3819 14.7218 56.255 15.5704 55.202 16.4972C53.9226 17.6243 52.7662 18.8428 51.6491 20.096C51.595 20.157 51.5901 20.2483 51.5655 20.3267C51.6491 20.3441 51.7328 20.3832 51.8165 20.3832C52.3184 20.3702 52.8154 20.3354 53.3124 20.3223C54.9067 20.2788 56.4912 20.3876 58.0609 20.6095C58.4546 20.6661 58.8532 20.7183 59.1829 20.9577C59.2518 21.0099 59.3846 21.0186 59.488 21.0055C59.675 20.9838 59.857 20.9446 60.0391 20.8967C60.6837 20.727 61.3284 20.566 61.9631 20.3789C62.4847 20.2266 63.0063 20.0743 63.5033 19.8784C64.0791 19.6522 64.645 19.4085 65.1813 19.1213C65.8358 18.7688 66.4755 18.3858 67.0709 17.9637C67.8287 17.4328 68.4094 16.7627 68.867 16.0055C69.1721 15.492 69.3296 14.9437 69.4772 14.3301ZM30.9719 35.3832C30.9867 35.3832 31.0015 35.3876 31.0162 35.3876C31.0015 35.6356 30.9867 35.8793 30.9769 36.1274C30.9719 36.2797 31.0162 36.3972 31.2327 36.4015C32.3448 36.4146 33.4422 36.3101 34.5198 36.0577C35.1595 35.9098 35.7943 35.7357 36.4144 35.5399C37.0295 35.3441 37.6249 35.1091 38.2301 34.8872C38.3728 34.8349 38.363 34.7523 38.2547 34.6739C38.2104 34.6391 38.1612 34.613 38.1169 34.5869C37.492 34.204 37.2558 33.7035 37.4182 33.0464C37.6052 32.298 37.7676 31.5451 38.0087 30.8053C38.2252 30.1352 38.4712 29.4607 38.8009 28.8254C39.234 28.0029 39.7654 27.2196 40.2477 26.4146C40.287 26.3449 40.3215 26.2362 40.2919 26.1752C40.0557 25.7009 39.79 25.2353 39.5587 24.7566C39.3471 24.3171 39.1405 23.8776 38.9732 23.425C38.7665 22.8767 38.5795 22.3197 38.422 21.7627C38.2646 21.21 38.1416 20.6487 38.0185 20.0873C37.9398 19.7174 37.8955 19.3432 37.8266 18.969C37.8168 18.9037 37.7577 18.8428 37.7085 18.7949C37.6987 18.7862 37.6003 18.821 37.5707 18.8515C37.1771 19.2779 36.7539 19.687 36.3996 20.1352C35.8485 20.8358 35.3219 21.5495 34.82 22.2805C34.5149 22.7244 34.2738 23.2031 34.0228 23.6731C33.8309 24.0299 33.6538 24.3998 33.4865 24.7653C33.2749 25.2353 33.0584 25.7009 32.8763 26.1839C32.6647 26.7453 32.4777 27.3154 32.3104 27.8898C32.0939 28.6252 31.8823 29.3606 31.715 30.1091C31.5723 30.7531 31.4739 31.4102 31.3853 32.063C31.2327 33.1639 31.1097 34.2736 30.9719 35.3832ZM42.5555 32.0891C42.5555 32.0978 42.5555 32.1065 42.5555 32.1195C43.1755 32.0934 43.8005 32.0586 44.4205 32.0412C45.8278 31.9977 47.2057 31.7932 48.5786 31.5451C48.9132 31.4842 49.2478 31.4059 49.5726 31.3101C50.1385 31.1404 50.7093 30.9794 51.2456 30.7575C51.9099 30.4833 52.5693 30.1831 53.1795 29.8349C53.9029 29.4215 54.5278 28.8993 55.0593 28.2858C55.5907 27.6765 56.0139 27.0151 56.2796 26.2927C56.4961 25.7053 56.6093 25.083 56.7323 24.4738C56.7914 24.1822 56.7668 23.8819 56.7815 23.586C56.7914 23.3946 56.7028 23.2901 56.4715 23.2814C56.2107 23.2727 55.9499 23.2335 55.6891 23.2248C54.7837 23.1944 53.8733 23.1291 52.9679 23.1552C51.7476 23.1944 50.5321 23.3206 49.3659 23.6774C48.6819 23.8863 47.9831 24.0908 47.3484 24.3911C46.6496 24.7261 45.9951 25.1439 45.3554 25.566C44.386 26.2057 43.643 27.0412 42.9787 27.9246C42.4719 28.5991 42.0191 29.304 41.7042 30.0699C41.4729 30.6313 41.2417 31.197 41.0301 31.7627C40.9415 32.002 41.0202 32.0847 41.3056 32.0891C41.719 32.0934 42.1372 32.0891 42.5555 32.0891ZM48.1012 65.6705C48.0865 65.4485 48.0865 65.2092 48.0471 64.9742C47.8798 63.9516 47.5501 62.9768 46.9891 62.0586C46.5463 61.3276 46.0247 60.6487 45.4194 60.0177C44.4894 59.0473 43.4413 58.1857 42.2996 57.4111C41.9256 57.1544 41.5271 56.9237 41.1432 56.68C41.0104 56.5974 40.907 56.6235 40.8185 56.7497C40.6266 57.0282 40.4002 57.2893 40.2378 57.5808C39.9524 58.0987 39.6522 58.6209 39.4603 59.1648C39.2733 59.6914 39.1798 60.2527 39.106 60.801C39.0125 61.4886 39.0962 62.1805 39.293 62.8463C39.4357 63.3336 39.6522 63.8036 39.854 64.278C40.1738 65.0134 40.661 65.6661 41.1777 66.2971C41.9601 67.2545 42.8803 68.0987 43.8792 68.8733C44.5534 69.3954 45.2718 69.8828 45.9755 70.3789C46.1723 70.5182 46.3445 70.4877 46.4479 70.3267C46.9695 69.5303 47.432 68.7166 47.7125 67.8245C47.9438 67.1239 48.0816 66.4189 48.1012 65.6705ZM49.7497 34.4215C49.7448 34.2649 49.6611 34.217 49.4791 34.2475C48.6425 34.3954 47.8109 34.5608 46.9695 34.6696C46.1182 34.7784 45.257 34.8175 44.4008 34.8915C44.3073 34.9002 44.204 34.922 44.1252 34.9698C43.2838 35.4703 42.462 35.9925 41.6058 36.4711C41.0055 36.8062 40.3756 37.1021 39.7359 37.3763C39.1257 37.6374 38.5008 37.868 37.866 38.0769C37.2312 38.2858 36.5817 38.4642 35.937 38.6382C35.7796 38.6818 35.7008 38.747 35.6664 38.8819C35.5089 39.526 35.3613 40.17 35.1842 40.8097C35.1202 41.036 35.1989 41.1491 35.4203 41.2362C35.8288 41.3972 36.252 41.5451 36.6407 41.7366C37.2361 42.0325 37.8315 42.3371 38.3925 42.6852C38.8649 42.9812 39.2832 43.3423 39.7408 43.66C39.8392 43.7296 39.9967 43.7775 40.1099 43.7601C40.3165 43.7253 40.5085 43.6383 40.7053 43.5686C41.6107 43.2336 42.4965 42.868 43.3379 42.4155C44.2089 41.9455 45.0208 41.4146 45.7639 40.801C46.6693 40.0569 47.4468 39.2127 48.052 38.2597C48.4408 37.6461 48.7557 36.989 49.0805 36.345C49.2281 36.049 49.3462 35.7401 49.4545 35.4268C49.5676 35.1047 49.6513 34.7653 49.7497 34.4215ZM36.9212 67.472C36.9212 67.4677 36.9212 67.4677 36.9212 67.4633C37.2164 67.4764 37.5117 67.4894 37.8069 67.4981C38.1169 67.5068 38.1662 67.4285 38.0185 67.1935C37.7577 66.7845 37.4674 66.3885 37.2361 65.9664C36.936 65.4224 36.6161 64.8741 36.4291 64.2954C36.1929 63.5686 36.0847 62.8115 35.9026 62.0673C35.8731 61.9411 35.7796 61.7975 35.6615 61.7149C35.3121 61.4625 34.943 61.2362 34.5838 60.9968C33.7817 60.4616 32.9796 59.922 32.1726 59.3867C31.0802 58.66 29.9829 57.9376 28.8904 57.2153C28.5558 56.9934 28.2261 56.7671 27.8915 56.5495C27.7587 56.4625 27.6012 56.3667 27.4536 56.5147C27.2764 56.6931 27.1042 56.8802 26.9664 57.0847C26.6416 57.5678 26.6466 58.1074 26.6908 58.647C26.7499 59.4041 27.055 60.0917 27.3945 60.7793C27.7587 61.5103 28.2409 62.1761 28.8462 62.7549C29.4711 63.3554 30.1403 63.9255 30.8391 64.4564C31.5083 64.9655 32.2267 65.4224 32.9501 65.8706C33.58 66.2623 34.2492 66.5974 34.8889 66.9716C35.4696 67.311 36.0502 67.6243 36.7932 67.4677C36.8375 67.4633 36.8769 67.472 36.9212 67.472ZM24.9686 42.3371C25.0325 43.5947 25.126 44.9002 25.5099 46.1796C25.628 46.5712 25.623 46.5799 26.0019 46.358C27.5864 45.4355 29.0135 44.3563 30.2043 43.0464C30.9523 42.224 31.587 41.3406 31.9758 40.3354C32.0693 40.0873 32.1579 39.8393 32.2612 39.6C32.3891 39.3084 32.3301 39.2301 31.9807 39.2344C31.4394 39.2388 30.8981 39.2605 30.3568 39.2214C29.8303 39.1822 29.2792 39.1474 28.7871 38.9907C28.0588 38.7601 27.7045 38.1639 27.739 37.4677C27.803 36.345 27.862 35.2222 27.926 34.0995C27.9309 34.0255 27.9358 33.9516 27.921 33.8819C27.9112 33.8384 27.8669 33.7819 27.8276 33.7731C27.7931 33.7644 27.7242 33.8123 27.6996 33.8471C27.5421 34.0734 27.3798 34.304 27.2371 34.539C26.7548 35.3354 26.2824 36.1361 25.9823 37.0064C25.7756 37.6069 25.5295 38.2031 25.377 38.8123C25.0867 39.9481 24.9883 41.1143 24.9686 42.3371ZM55.4086 80.3876C55.6842 80.3876 55.9352 80.392 56.191 80.3833C56.2747 80.3789 56.3534 80.3397 56.4371 80.3136C56.3928 80.2397 56.3731 80.1526 56.3091 80.1004C55.7925 79.674 55.2807 79.2475 54.7492 78.8428C53.9767 78.2466 53.1303 77.7331 52.2298 77.3023C51.6491 77.0282 51.034 76.8019 50.4239 76.58C49.6169 76.2884 48.7754 76.1143 47.9093 76.0229C46.9842 75.9272 46.0591 75.9446 45.1389 76.0447C45.0454 76.0534 44.9027 76.0969 44.8781 76.1578C44.8535 76.2231 44.9175 76.3363 44.9765 76.4015C46.1083 77.5678 47.4812 78.4598 49.0559 79.0952C49.7743 79.3867 50.537 79.5869 51.2899 79.8045C52.6284 80.1874 54.0259 80.2875 55.4086 80.3876ZM41.5418 74.0299C41.6648 73.9951 41.7928 73.969 41.9158 73.9298C42.7917 73.6296 43.6824 73.3946 44.6173 73.325C44.6813 73.3206 44.7748 73.2771 44.7895 73.2336C44.8043 73.1944 44.7502 73.1161 44.7108 73.0726C44.6567 73.0203 44.5878 72.9812 44.5189 72.9377C44.2286 72.7505 43.9186 72.5808 43.643 72.3763C42.9344 71.8541 42.1914 71.3798 41.3302 71.0882C40.3756 70.7618 39.4062 70.4964 38.3777 70.3789C37.3739 70.2614 36.3848 70.2701 35.3908 70.4007C35.3269 70.4094 35.2383 70.4485 35.2186 70.4964C35.1989 70.5399 35.2284 70.6226 35.2727 70.6661C36.1142 71.4842 37.0442 72.2022 38.1268 72.7679C39.0371 73.2423 39.9967 73.5991 40.9809 73.9081C41.1678 73.9603 41.3548 73.9864 41.5418 74.0299ZM21.775 50.0264C21.7504 50.0308 21.7258 50.0308 21.7012 50.0351C21.8242 50.6966 21.9275 51.3624 22.0702 52.0195C22.1342 52.3067 22.2375 52.5939 22.3753 52.8637C22.641 53.3772 22.9215 53.8819 23.2315 54.3693C23.4579 54.7175 23.7384 55.0438 24.0139 55.3658C24.1665 55.5443 24.2797 55.5182 24.4273 55.3354C24.6143 55.1091 24.8062 54.8828 25.0178 54.6696C25.1408 54.5434 25.1851 54.4215 25.1211 54.2736C25.0522 54.1126 24.9538 53.9603 24.8898 53.7949C24.6389 53.1509 24.5454 52.4851 24.5552 51.8062C24.5601 51.445 24.5995 51.0839 24.6241 50.7227C24.6389 50.5356 24.57 50.4355 24.3338 50.3963C24.0976 50.3571 23.8368 50.2962 23.6547 50.17C23.1184 49.7958 22.6164 49.378 22.0948 48.982C22.0309 48.9342 21.957 48.8993 21.8832 48.8602C21.8488 48.9342 21.7799 49.0125 21.7799 49.0865C21.7701 49.4041 21.775 49.7175 21.775 50.0264ZM66.6182 80.0308C65.8309 80.1396 64.7286 80.2832 63.6362 80.4529C63.2425 80.5138 62.8636 80.6357 62.4798 80.7445C62.4158 80.7619 62.347 80.8358 62.3371 80.8924C62.3273 80.9272 62.4109 80.9925 62.47 81.0229C63.0851 81.3276 63.7297 81.3102 64.3743 81.1317C64.9599 80.9664 65.5455 80.8184 66.1655 80.7793C67.6663 80.6879 69.0786 80.9577 70.4121 81.5582C70.4613 81.58 70.5302 81.5669 70.5942 81.5713C70.5942 81.506 70.6188 81.4277 70.5844 81.3754C70.2891 80.9185 69.8364 80.6096 69.3 80.405C68.5521 80.1178 67.7451 80.0873 66.6182 80.0308Z" fill="#EE7632"/>
<path d="M10.0979 64.6079C7.42096 64.6253 5.24104 62.6018 5.30009 60.2563C5.36406 57.9238 7.61287 56.0047 10.275 56.1048C12.883 56.2049 14.9498 58.0587 14.9055 60.4347C14.8661 62.815 12.6616 64.6209 10.0979 64.6079ZM10.1077 58.9638C9.20229 58.9247 8.50353 59.6253 8.50845 60.3607C8.51337 61.1179 9.1826 61.7793 10.1274 61.7663C11.0131 61.7532 11.6971 61.1309 11.7021 60.3433C11.707 59.6514 10.9935 58.916 10.1077 58.9638Z" fill="#EE7632"/>
<path d="M6.82208 44.904C6.46286 44.9215 6.09872 44.7822 5.79855 44.5255C5.43442 44.2121 5.07028 43.8988 4.71598 43.5768C4.58312 43.455 4.47978 43.455 4.35184 43.5768C4.05167 43.851 3.73182 44.1164 3.43165 44.3949C3.00354 44.7866 2.50162 44.9693 1.8816 44.891C1.08443 44.7909 0.464409 44.0511 0.582509 43.3418C0.636637 42.9937 0.803943 42.7108 1.07951 42.4671C1.38952 42.1886 1.70445 41.9145 2.01938 41.636C2.21621 41.4619 2.22113 41.3792 2.0243 41.2008C1.70937 40.9136 1.38952 40.6351 1.06967 40.3523C0.562824 39.904 0.444727 39.3601 0.690767 38.79C0.95649 38.1808 1.66508 37.8283 2.41305 37.9328C2.78211 37.985 3.0872 38.1416 3.348 38.3766C3.64325 38.6377 3.94341 38.8945 4.23866 39.1556C4.50931 39.3949 4.54375 39.3949 4.82916 39.1469C5.20806 38.8161 5.5722 38.468 5.98554 38.1765C6.64001 37.7108 7.69306 37.898 8.18514 38.4985C8.58865 38.9902 8.57388 39.8562 8.00799 40.3349C7.6783 40.6177 7.35845 40.9093 7.0386 41.1965C6.82208 41.3923 6.83192 41.4402 7.04352 41.6403C7.45194 42.0233 7.90466 42.3845 8.24911 42.8066C8.68706 43.3462 8.50007 44.2383 7.80624 44.656C7.47163 44.8562 7.27479 44.904 6.82208 44.904Z" fill="#EE7632"/>
<path d="M11.7129 7.89774C11.7079 8.65492 10.96 9.32072 10.1136 9.31637C9.24262 9.31202 8.50942 8.65057 8.51434 7.87599C8.51926 7.11445 9.2623 6.46606 10.1234 6.46606C10.9649 6.46606 11.7178 7.14491 11.7129 7.89774Z" fill="#EE7632"/>
</svg>
