<svg width="87" height="86" viewBox="0 0 87 86" fill="none" xmlns="http://www.w3.org/2000/svg">
<path d="M86.4993 20.5265C86.4749 20.6444 86.4424 20.7622 86.4302 20.8801C86.2879 22.4325 85.9954 23.9565 85.589 25.4642C85.2435 26.7484 84.8168 28.0041 84.3088 29.2273C83.3416 31.5722 82.159 33.8073 80.7733 35.9327C79.3224 38.1638 77.701 40.2567 75.9291 42.2399C74.7099 43.6054 73.4135 44.8936 72.0684 46.1331C71.2637 46.8768 70.4063 47.5636 69.5569 48.2585C67.5006 49.941 65.3102 51.4324 63.0181 52.7816C61.4779 53.6919 59.8849 54.5006 58.2471 55.2037C56.7475 55.8499 55.2236 56.4635 53.6468 56.8983C52.2366 57.2885 50.8183 57.6258 49.3675 57.8371C47.6607 58.0891 45.9498 58.2069 44.2267 58.0891C43.2676 58.024 42.3126 57.9265 41.3739 57.6908C41.0853 57.6176 40.7927 57.5689 40.5042 57.4876C40.2847 57.4266 40.1425 57.5242 40.0003 57.6623C39.1997 58.467 38.3706 59.2513 37.5944 60.0844C34.5546 63.3477 31.7912 66.8427 29.0887 70.3864C26.9958 73.1336 24.8948 75.8767 22.6556 78.502C21.0504 80.3835 19.2663 82.0863 17.145 83.3868C15.5682 84.354 13.8817 85.0204 12.0163 85.1505C10.6102 85.2521 9.26914 84.992 7.98089 84.4434C6.24967 83.7037 4.85169 82.5211 3.61627 81.1354C2.57185 79.965 1.69405 78.6848 1.14949 77.2015C0.962551 76.6976 0.848763 76.1652 0.706527 75.641C0.665888 75.4866 0.678079 75.3118 0.499268 75.2265C0.499268 74.4665 0.499268 73.7106 0.499268 72.9507C0.56429 72.8085 0.66995 72.6744 0.694334 72.5281C0.905656 71.2113 1.43396 70.0125 2.12482 68.8868C3.35618 66.8711 5.01018 65.2374 6.85112 63.7907C9.17567 61.966 11.6872 60.4095 14.1824 58.8327C17.5148 56.7276 20.8878 54.6876 24.1227 52.4362C26.3578 50.8838 28.5645 49.2867 30.6167 47.4904C30.889 47.2507 30.954 47.0271 30.885 46.6777C30.6005 45.2472 30.5842 43.8045 30.6818 42.3496C30.7712 40.9638 31.0231 39.6106 31.3076 38.2613C31.4377 37.6396 31.6368 37.0341 31.8359 36.4285C31.9213 36.1684 31.8684 36.0018 31.6937 35.8108C30.6777 34.7054 29.6658 33.5879 28.6579 32.4744C28.4263 32.2224 28.2353 31.9461 28.1825 31.5925C28.1012 31.0398 28.3003 30.609 28.7392 30.288C29.1741 29.9751 29.7715 29.9629 30.186 30.2555C30.3932 30.4018 30.5842 30.5806 30.759 30.7675C34.1889 34.5348 37.6107 38.302 41.0366 42.0733C41.512 42.5934 41.9916 43.1055 42.4752 43.6216C43.1904 44.3856 44.0967 44.7798 45.1004 44.983C46.5472 45.2797 47.9858 45.1415 49.4163 44.8611C49.461 44.853 49.5016 44.8123 49.5748 44.7717C49.4976 44.6701 49.4407 44.5848 49.3675 44.5075C44.3852 39.0254 39.4029 33.5432 34.4165 28.061C33.4411 26.9881 32.4658 25.9193 31.4945 24.8424C31.3604 24.692 31.2345 24.5254 31.141 24.3507C30.8525 23.8142 30.9703 23.1437 31.4255 22.7576C31.8887 22.3675 32.4821 22.2415 33.0673 22.656C33.242 22.7779 33.4046 22.9283 33.5509 23.0868C39.7646 29.9182 45.9782 36.7536 52.1919 43.5891C52.5252 43.9549 52.5414 43.9508 52.9885 43.772C54.1467 43.3087 55.2724 42.7804 56.3574 42.1667C56.4509 42.1139 56.5444 42.0611 56.6338 42.0001C56.6663 41.9798 56.6825 41.9392 56.7272 41.8782C56.6338 41.7685 56.5443 41.6547 56.4468 41.549C52.9681 37.7208 49.4894 33.8927 46.0067 30.0604C42.5727 26.281 39.1387 22.5057 35.7047 18.7222C35.4975 18.4946 35.2902 18.2548 35.1317 17.9907C34.8066 17.4502 34.9285 16.7715 35.3918 16.3611C35.8592 15.9465 36.5744 15.914 37.0743 16.296C37.2449 16.4261 37.3994 16.5805 37.5457 16.739C41.6096 21.2052 45.6735 25.6755 49.7373 30.1458C52.7609 33.4741 55.7885 36.7983 58.812 40.1267C59.1209 40.468 59.129 40.4762 59.5029 40.1958C60.466 39.4683 61.421 38.7368 62.376 38.0053C62.4817 37.924 62.5711 37.8265 62.6971 37.7046C62.5874 37.5745 62.4979 37.4608 62.4045 37.351C59.7183 34.3925 57.028 31.4381 54.3417 28.4796C49.713 23.3875 45.0882 18.2955 40.4635 13.1993C40.236 12.9474 40.0246 12.6873 39.9596 12.3378C39.854 11.7851 40.0653 11.2568 40.5164 10.9601C40.9959 10.6472 41.573 10.6554 42.0322 11.0008C42.2151 11.139 42.3776 11.3015 42.5321 11.4722C46.6163 15.9587 50.6964 20.4493 54.7806 24.9399C57.9586 28.4389 61.1406 31.9339 64.3186 35.4329C64.7697 35.9287 64.7453 35.9002 65.1801 35.441C65.9766 34.5917 66.7569 33.7301 67.5412 32.8645C67.8135 32.5638 67.8094 32.5394 67.525 32.2265C65.5418 30.0401 63.5546 27.8578 61.5673 25.6714C57.1986 20.876 52.8178 16.0563 48.4369 11.2324C47.7338 10.4603 47.0308 9.69221 46.3318 8.91601C46.2058 8.77784 46.092 8.62341 45.9945 8.46085C45.6653 7.91223 45.7466 7.24982 46.2058 6.82717C46.6447 6.42485 47.2665 6.26636 47.8801 6.69713C48.0549 6.81904 48.2174 6.96941 48.3597 7.1279C52.5495 11.7363 56.7394 16.3489 60.9293 20.9614C63.6887 23.9971 66.4521 27.0328 69.2115 30.0685C69.2887 30.1539 69.3781 30.2311 69.4878 30.3327C69.5894 30.2108 69.6707 30.1214 69.7398 30.0279C70.4957 28.951 71.1622 27.8212 71.7717 26.6549C71.9384 26.3379 71.9343 26.3338 71.6823 26.0575C66.5334 20.3965 61.3885 14.7314 56.2396 9.07044C55.2114 7.93661 54.1792 6.80685 53.1551 5.66897C53.021 5.5186 52.899 5.35198 52.7974 5.17723C52.4926 4.63674 52.6024 3.99464 53.0453 3.58013C53.5046 3.14935 54.1792 3.08433 54.6912 3.45415C54.9391 3.63296 55.1586 3.8646 55.3658 4.09217C58.4747 7.50584 61.5795 10.9276 64.6884 14.3454C67.3827 17.312 70.0812 20.2786 72.7796 23.2453C72.8487 23.3225 72.9299 23.3834 73.0315 23.4769C73.2673 23.1071 73.3404 22.717 73.4176 22.3431C73.5436 21.7091 73.6452 21.063 73.7061 20.4168C73.8077 19.3074 73.6899 18.2142 73.1575 17.2185C72.8974 16.7349 72.5601 16.2798 72.1903 15.8734C69.6301 13.0368 67.0536 10.2165 64.4852 7.39205C63.2742 6.0591 62.0591 4.72614 60.8521 3.38912C60.6976 3.21844 60.5595 3.03557 60.4416 2.83643C60.1409 2.32438 60.2506 1.65384 60.6855 1.23933C61.1325 0.808554 61.7827 0.735404 62.2907 1.08083C62.4898 1.21494 62.6686 1.38969 62.8352 1.56444C63.8593 2.68201 64.8875 3.79958 65.8913 4.9334C66.1189 5.18942 66.3464 5.2707 66.6756 5.19349C68.0126 4.87651 69.3781 4.75052 70.7436 4.70176C72.1212 4.65706 73.503 4.71801 74.8725 4.94559C75.7869 5.09596 76.6809 5.31541 77.5425 5.62426C79.9076 6.46549 81.9599 7.76187 83.5245 9.78162C84.1666 10.6147 84.7315 11.4885 85.1663 12.4313C85.6499 13.4757 86.0197 14.5648 86.1945 15.7108C86.2758 16.2595 86.3489 16.8081 86.4261 17.3567C86.4424 17.4624 86.4749 17.564 86.4993 17.6696C86.4993 18.6328 86.4993 19.5797 86.4993 20.5265ZM34.0589 38.4767C34.0142 38.623 33.9898 38.684 33.9735 38.749C33.8882 39.1595 33.8191 39.574 33.7175 39.9804C33.4615 41.0248 33.3721 42.0977 33.3314 43.1624C33.2705 44.8489 33.4574 46.511 33.9735 48.1325C34.2377 48.9656 34.6115 49.7459 35.0545 50.4855C35.3837 51.0382 35.8023 51.5503 36.2452 52.0217C36.9158 52.7328 37.6676 53.3587 38.5413 53.8098C39.2119 54.1552 39.8905 54.5128 40.6017 54.7526C41.4429 55.033 42.3126 55.2362 43.2067 55.3581C44.2877 55.5044 45.3687 55.5329 46.4496 55.5004C48.6685 55.4313 50.8346 55.0046 52.9478 54.3543C54.1223 53.9927 55.2724 53.5497 56.4184 53.1027C57.983 52.489 59.4825 51.7331 60.9415 50.9082C63.6115 49.4005 66.1189 47.6489 68.4719 45.6779C69.9389 44.4506 71.341 43.1583 72.6658 41.7807C73.7549 40.6468 74.7953 39.4724 75.7787 38.241C77.1686 36.5017 78.4365 34.6811 79.55 32.7548C80.6148 30.9138 81.5413 29.0038 82.2606 26.9962C82.6792 25.834 83.0368 24.6554 83.305 23.4566C83.5448 22.3878 83.6952 21.3027 83.7643 20.2014C83.8821 18.3564 83.7277 16.5561 83.1628 14.7883C82.7198 13.3985 82.0168 12.159 81.0577 11.0699C80.6391 10.5944 80.1596 10.1596 79.6516 9.78162C78.5462 8.96071 77.323 8.37145 75.9941 7.98538C74.9334 7.67653 73.8524 7.49771 72.7593 7.42863C71.3775 7.34329 69.9958 7.41643 68.6222 7.58712C68.5613 7.59525 68.5084 7.62776 68.4109 7.6684C68.4962 7.78218 68.5531 7.87159 68.6222 7.94474C70.516 10.0295 72.4057 12.1224 74.3035 14.1991C75.1773 15.1581 75.795 16.2513 76.1079 17.5111C76.4777 18.9985 76.4452 20.494 76.1973 21.9895C75.9169 23.6801 75.3642 25.2935 74.653 26.8499C73.694 28.951 72.491 30.9098 71.1053 32.7588C68.8986 35.7052 66.3424 38.302 63.4814 40.6062C60.6976 42.8535 57.6944 44.7432 54.3824 46.129C52.4479 46.9377 50.4445 47.466 48.3719 47.7749C47.1486 47.9537 45.9295 47.8806 44.7306 47.6896C42.9263 47.401 41.4023 46.5639 40.1669 45.174C38.2487 43.0202 36.2899 40.9029 34.3474 38.7693C34.2905 38.684 34.2011 38.6108 34.0589 38.4767ZM31.7546 50.1035C31.6205 50.2051 31.523 50.2742 31.4295 50.3473C30.6533 50.9569 29.8812 51.5787 29.0968 52.1761C26.435 54.204 23.6553 56.0612 20.8268 57.8493C18.0268 59.6252 15.2187 61.393 12.4308 63.1892C10.724 64.2905 9.02531 65.4041 7.50541 66.7614C6.38784 67.757 5.35968 68.8258 4.55096 70.0938C3.98202 70.9919 3.55531 71.9428 3.36025 73.0035C3.12454 74.2674 3.34805 75.45 3.83166 76.6082C4.17709 77.4413 4.70946 78.1606 5.26215 78.8636C5.98145 79.774 6.81049 80.5705 7.75737 81.2329C8.87901 82.0213 10.1266 82.4927 11.5124 82.4764C12.7234 82.4642 13.8573 82.1066 14.9301 81.5539C16.6979 80.6396 18.1772 79.3594 19.5386 77.933C21.0544 76.344 22.3996 74.6088 23.7569 72.8857C25.8945 70.175 27.9793 67.4197 30.1128 64.7051C32.3276 61.8807 34.6766 59.166 37.2124 56.6179C37.2856 56.5448 37.3465 56.4594 37.4481 56.3375C37.31 56.24 37.2002 56.1465 37.0783 56.0774C36.3753 55.6873 35.7291 55.2159 35.1317 54.6916C33.7703 53.4969 32.6975 52.0826 31.9619 50.4205C31.9091 50.3189 31.8318 50.2254 31.7546 50.1035Z" fill="#EE7632"/>
</svg>
