<svg width="87" height="86" viewBox="0 0 87 86" fill="none" xmlns="http://www.w3.org/2000/svg">
<path d="M0.501221 28.4201C0.667685 28.3551 0.692047 28.2049 0.720468 28.0587C1.12648 25.9475 2.22677 24.2869 3.98073 23.0607C4.86584 22.4436 5.84432 22.0254 6.91619 21.8427C7.3222 21.7737 7.34656 21.7493 7.34656 21.3149C7.34656 18.826 7.34656 16.3372 7.34656 13.8483C7.34656 13.6453 7.3425 13.4423 7.35063 13.2393C7.39123 11.9076 8.36971 10.921 9.69331 10.8682C9.78669 10.8642 9.88413 10.8642 9.97752 10.8642C16.1205 10.8642 22.2634 10.8642 28.4064 10.8601C28.8854 10.8601 29.3483 10.9129 29.7787 11.1524C30.546 11.5828 30.9602 12.2405 31.0332 13.1135C31.0495 13.2881 31.0414 13.4667 31.0414 13.6413C31.0414 16.1585 31.0414 18.6758 31.0414 21.189C31.0414 21.2702 31.0373 21.3514 31.0414 21.4326C31.0535 21.7331 31.086 21.7818 31.3905 21.8265C31.9955 21.9158 32.5801 22.0904 33.1323 22.3502C35.609 23.4992 37.1437 25.4034 37.6675 28.0912C37.769 28.6068 37.8055 29.1387 37.8055 29.6625C37.8136 45.7892 37.8136 61.916 37.8096 78.0468C37.8096 80.6453 36.7986 82.7728 34.7523 84.3846C33.7819 85.1479 32.6776 85.6433 31.4514 85.8544C31.3377 85.8747 31.2322 85.9437 31.1226 85.9884C23.1647 85.9884 15.2069 85.9884 7.24912 85.9884C7.12732 85.9396 7.00958 85.8666 6.88371 85.8422C5.80778 85.6351 4.82118 85.2251 3.93201 84.5876C2.21053 83.3574 1.12242 81.7131 0.728586 79.6262C0.704225 79.4922 0.683926 79.3541 0.509341 79.3298C0.501221 62.3626 0.501221 45.3913 0.501221 28.4201ZM33.0674 64.9854C33.0674 64.8068 33.0674 64.6606 33.0674 64.5144C33.0674 53 33.0674 41.4855 33.0674 29.971C33.0674 29.7802 33.0714 29.5934 33.0633 29.4026C33.0105 28.3429 32.5517 27.5147 31.6666 26.926C31.0941 26.5484 30.4567 26.4306 29.7746 26.4306C22.7263 26.4387 15.6738 26.4347 8.6255 26.4347C8.50369 26.4347 8.38189 26.4306 8.26009 26.4387C7.2207 26.4996 6.3965 26.9503 5.8159 27.8232C5.43425 28.3957 5.30839 29.0291 5.30839 29.7112C5.31245 37.2468 5.31245 44.7864 5.31245 52.3219C5.31245 56.382 5.31245 60.4422 5.31245 64.4982C5.31245 64.6566 5.32869 64.8108 5.33681 64.9935C5.51139 65.0017 5.64132 65.0179 5.7753 65.0179C7.31814 65.0179 8.86099 65.0098 10.4038 65.026C10.7246 65.0301 10.887 64.9164 11.021 64.6362C12.0035 62.5494 13.2012 60.5924 14.5898 58.7491C14.736 58.5583 14.809 58.3593 14.8293 58.1198C14.9349 56.7962 15.1257 55.4888 15.4465 54.1977C15.8931 52.4194 16.5387 50.7182 17.4035 49.1023C19.1412 45.842 21.5488 43.1786 24.598 41.0876C25.4953 40.4705 26.6077 40.4827 27.436 41.112C28.6459 42.0296 28.6743 43.8444 27.4928 44.8148C27.3264 44.9528 27.1396 45.0665 26.9731 45.2046C26.2504 45.7973 25.4831 46.3414 24.8213 46.991C21.7153 50.0523 19.9776 53.7795 19.5675 58.1238C19.5431 58.3715 19.6 58.5664 19.7461 58.7613C21.1306 60.6086 22.3284 62.5656 23.3109 64.6525C23.4368 64.9205 23.5951 65.026 23.8996 65.026C26.8107 65.0138 29.7178 65.022 32.6289 65.0179C32.7588 65.0138 32.8887 64.9976 33.0674 64.9854ZM5.33681 69.7845C5.32869 69.9509 5.31651 70.0971 5.31651 70.2392C5.31651 71.5912 5.31651 72.9432 5.31651 74.2993C5.31651 75.6107 5.30027 76.9221 5.32463 78.2376C5.34493 79.3623 5.84839 80.2352 6.81063 80.828C7.30596 81.1325 7.85002 81.2665 8.43467 81.2665C15.6048 81.2624 22.775 81.2665 29.9411 81.2665C29.9817 81.2665 30.0223 81.2665 30.0629 81.2665C31.7194 81.234 33.0552 79.9185 33.0674 78.2579C33.0836 75.5376 33.0755 72.8214 33.0714 70.1012C33.0714 69.9997 33.043 69.8982 33.0227 69.7601C32.8481 69.7601 32.7019 69.7601 32.5558 69.7601C29.8923 69.7601 27.2249 69.7601 24.5614 69.7601C24.4924 69.7601 24.4274 69.7642 24.3584 69.7601C24.1473 69.7439 24.0336 69.8535 23.9768 70.0443C23.9199 70.2392 23.855 70.43 23.7859 70.6208C22.3608 74.4252 17.8744 76.2563 14.2081 74.5226C12.2837 73.6132 10.9925 72.1434 10.3673 70.1012C10.2698 69.7885 10.2333 69.7561 9.87195 69.7561C8.49151 69.752 7.11108 69.7561 5.73064 69.7561C5.60884 69.7561 5.49109 69.7723 5.33681 69.7845ZM12.1253 15.6267C12.105 15.7322 12.0847 15.785 12.0847 15.8337C12.0847 17.7014 12.0847 19.569 12.0847 21.4326C12.0847 21.4854 12.101 21.5382 12.1131 21.591C12.1172 21.6032 12.1253 21.6113 12.1375 21.6235C12.1456 21.6316 12.1578 21.6397 12.1822 21.6641C12.2187 21.6722 12.2715 21.6884 12.3243 21.6884C16.8838 21.6884 21.4392 21.6925 25.9987 21.6925C26.0637 21.6925 26.1327 21.6762 26.1977 21.6641C26.2098 21.66 26.222 21.6519 26.2342 21.6438C26.2423 21.6356 26.2504 21.6235 26.2667 21.5991C26.2748 21.5747 26.2951 21.5341 26.2951 21.4976C26.2992 19.6299 26.2992 17.7664 26.2992 15.8987C26.2992 15.8337 26.2829 15.7647 26.2707 15.6998C26.2707 15.6876 26.2545 15.6795 26.2464 15.6673C26.2383 15.6551 26.2261 15.647 26.2098 15.6267C21.5326 15.6267 16.8432 15.6267 12.1253 15.6267ZM17.2004 63.4629C17.1111 63.5035 17.0786 63.5075 17.0624 63.5238C17.0015 63.5928 16.9406 63.6659 16.8838 63.743C16.0799 64.888 15.4505 66.1263 14.9877 67.4458C14.8781 67.7585 14.7522 68.0711 14.8131 68.4284C14.9877 69.4272 15.82 70.2595 16.8188 70.4016C17.846 70.5478 18.8854 69.9875 19.3036 69.0374C19.466 68.6679 19.6 68.2782 19.466 67.86C18.9869 66.3862 18.3089 65.0098 17.4238 63.739C17.3588 63.6415 17.2776 63.5563 17.2004 63.4629Z" fill="#EE7632"/>
<path d="M86.4964 10.3932C86.4111 10.7302 86.3258 11.0672 86.2446 11.4083C86.0254 12.3664 85.6031 13.2434 85.1159 14.0879C84.0075 16.0084 82.8991 17.9288 81.7907 19.8492C81.5877 20.2025 81.5917 20.1984 81.8435 20.5151C83.2036 22.2285 83.7761 24.1732 83.5406 26.3535C83.4229 27.4173 83.0899 28.412 82.5621 29.3377C81.6892 30.8643 80.8122 32.3868 79.9271 33.9053C79.6064 34.4616 79.1597 34.8716 78.5345 35.0828C77.7793 35.3385 77.1013 35.168 76.4395 34.7864C75.1768 34.0556 73.91 33.3288 72.6433 32.602C72.5255 32.5371 72.4078 32.4762 72.2494 32.3909C72.1601 32.5168 72.0708 32.6305 71.9977 32.7523C67.7143 40.166 63.4349 47.5757 59.1556 54.9895C58.4329 56.244 57.7264 57.5067 56.9672 58.737C55.6273 60.9132 53.7435 62.4723 51.3805 63.4386C50.0041 64.0029 48.5587 64.2831 47.0686 64.2993C46.0983 64.3115 45.3472 63.8974 44.8599 63.0407C43.6541 60.9051 43.1506 58.6233 43.3536 56.175C43.5039 54.348 44.0845 52.6671 44.998 51.0877C49.9026 42.598 54.8031 34.1083 59.7037 25.6146C59.8986 25.2776 59.8945 25.2451 59.5616 25.0502C58.2989 24.3154 57.0321 23.5886 55.7695 22.8578C55.2701 22.5695 54.8234 22.2203 54.5798 21.6763C54.2429 20.9211 54.2713 20.174 54.6773 19.4554C55.2904 18.3754 55.9075 17.2954 56.5409 16.2236C56.9956 15.4562 57.4219 14.6645 57.9497 13.9499C58.9891 12.541 60.3939 11.6397 62.0829 11.1809C63.1548 10.8886 64.2388 10.8033 65.3351 11.0104C65.7411 11.0875 65.7614 11.0672 65.9766 10.6937C67.085 8.77325 68.1974 6.85282 69.3018 4.93239C69.9271 3.84428 70.6741 2.86173 71.6648 2.07407C72.8747 1.11183 74.2308 0.48657 75.7493 0.194242C75.9279 0.161761 76.0944 0.0683797 76.2649 0.00341797C77.0485 0.00341797 77.8361 0.00341797 78.6197 0.00341797C78.7497 0.0643196 78.8715 0.161762 79.0055 0.182063C80.0002 0.352587 80.9381 0.681456 81.811 1.17679C84.1171 2.47602 85.595 4.41676 86.2528 6.97869C86.3421 7.33192 86.4152 7.68514 86.4923 8.03837C86.4964 8.82197 86.4964 9.60964 86.4964 10.3932ZM47.9781 57.2022C48.0877 57.8397 48.1892 58.4812 48.3151 59.1145C48.3638 59.3622 48.445 59.4028 48.6927 59.3297C49.0297 59.2323 49.3707 59.1348 49.6915 59.0009C51.2343 58.3553 52.3711 57.2631 53.2035 55.8218C58.104 47.328 63.0086 38.8384 67.9092 30.3487C68.1162 29.9914 68.1162 29.9914 67.7387 29.7721C66.6749 29.155 65.6071 28.5419 64.5434 27.9248C64.0155 27.6162 64.0155 27.6162 63.7029 28.1562C61.5876 31.8225 59.4723 35.4888 57.357 39.1551C54.6001 43.9338 51.8433 48.7125 49.0784 53.4913C48.4166 54.6403 48.0471 55.8624 47.9781 57.2022ZM59.9432 19.7761C60.1909 19.9264 60.3939 20.0522 60.601 20.174C64.8722 22.6426 69.1435 25.1111 73.4147 27.5797C74.4663 28.1887 75.5219 28.7977 76.5735 29.4067C76.9023 29.5976 76.947 29.5894 77.1378 29.2524C77.5925 28.4688 78.0554 27.6893 78.4858 26.8935C78.9527 26.0328 78.9811 25.1396 78.5994 24.2341C78.3152 23.5561 77.8158 23.0811 77.1865 22.7197C75.1484 21.5464 73.1142 20.3649 71.0761 19.1874C69.249 18.1318 67.426 17.0721 65.5909 16.0368C64.1901 15.2491 62.4808 15.6267 61.6038 16.9463C61.0232 17.8395 60.5238 18.7855 59.9432 19.7761ZM77.6291 17.4984C77.7184 17.3766 77.7915 17.2995 77.8443 17.2102C78.973 15.2572 80.1179 13.3084 81.2263 11.3392C82.0181 9.92632 82.0384 8.47281 81.2751 7.03553C80.3331 5.26532 78.234 4.37616 76.3014 4.89585C75.0671 5.22472 74.1699 5.97178 73.5405 7.06395C72.4443 8.96002 71.3522 10.8561 70.26 12.7562C70.0529 13.1135 70.061 13.1338 70.4264 13.3449C72.4646 14.5224 74.4987 15.6957 76.5369 16.8732C76.882 17.0721 77.2353 17.2711 77.6291 17.4984Z" fill="#EE7632"/>
<path d="M48.5735 85.9926C48.4801 85.9479 48.3868 85.8789 48.2893 85.8586C47.1647 85.6434 46.1537 85.1765 45.2605 84.466C43.8963 83.3819 43.0558 81.9771 42.6823 80.2719C42.3453 78.725 42.6986 77.2958 43.2994 75.891C44.1805 73.8285 45.3945 71.9568 46.6815 70.1297C47.0023 69.675 47.3271 69.2284 47.6681 68.7899C48.7156 67.4419 50.567 67.4054 51.6024 68.7574C53.2102 70.8524 54.684 73.0368 55.8005 75.4403C56.2025 76.3011 56.5232 77.1902 56.6856 78.1281C56.8318 78.9564 56.7506 79.7806 56.5435 80.5804C56.0035 82.6552 54.7855 84.2061 52.8854 85.209C52.3088 85.5135 51.6958 85.7205 51.0543 85.8464C50.9243 85.8708 50.8066 85.9398 50.6807 85.9885C49.9824 85.9926 49.2759 85.9926 48.5735 85.9926ZM49.6454 74.2467C49.5236 74.3969 49.4383 74.4943 49.3612 74.5999C48.5695 75.7367 47.9483 76.9629 47.4854 78.2662C47.3677 78.591 47.2418 78.9198 47.3108 79.2893C47.5057 80.2962 48.334 81.1001 49.3409 81.2341C50.3397 81.3681 51.3303 80.8403 51.7729 79.9146C51.9556 79.537 52.1018 79.131 51.9597 78.7047C51.4806 77.2187 50.7985 75.8261 49.8971 74.5471C49.8362 74.4619 49.7631 74.3888 49.6454 74.2467Z" fill="#EE7632"/>
</svg>
