<svg width="87" height="84" viewBox="0 0 87 84" fill="none" xmlns="http://www.w3.org/2000/svg">
<path d="M86.4924 48.2794C86.4087 48.3251 86.3326 48.3897 86.2413 48.4164C86.1576 48.4392 86.0663 48.4202 85.975 48.4202C75.3714 48.4202 64.7717 48.4202 54.1682 48.4202C54.1035 48.4202 54.0427 48.4164 53.978 48.4202C53.7078 48.4354 53.6546 48.4696 53.6508 48.7284C53.6432 49.3637 53.6432 49.9953 53.647 50.6307C53.6508 50.8856 53.7002 50.9274 53.9704 50.9389C54.0464 50.9427 54.1225 50.9389 54.1986 50.9389C60.541 50.9389 66.8795 50.9389 73.2218 50.9389C73.3588 50.9389 73.4958 50.9389 73.6213 50.9389C73.7316 51.228 73.7621 52.826 73.6746 53.4157C73.5909 53.4271 73.4958 53.4537 73.4006 53.4537C72.9935 53.4575 72.5902 53.4537 72.1832 53.4537C66.1832 53.4537 60.1871 53.4537 54.1872 53.4537C54.1378 53.4537 54.0845 53.4537 54.035 53.4537C53.6812 53.4613 53.647 53.488 53.647 53.8532C53.6432 55.9343 53.6508 58.0117 53.6432 60.0928C53.6432 60.3591 53.7573 60.5494 53.9247 60.732C54.7579 61.6299 55.4428 62.6305 55.983 63.73C56.3977 64.5747 56.7059 65.4535 56.9418 66.3666C57.3222 67.8467 57.3755 69.3495 57.2538 70.8599C57.1434 72.2182 56.8048 73.527 56.3102 74.7977C55.7852 76.1408 55.0889 77.3849 54.1986 78.5187C52.7529 80.3525 50.9799 81.7716 48.8151 82.6847C47.0459 83.4305 45.1969 83.712 43.2831 83.693C41.9515 83.6816 40.6503 83.5065 39.3834 83.1261C38.5464 82.875 37.7436 82.5326 36.975 82.1064C34.5553 80.7672 32.7329 78.8421 31.4165 76.4223C30.7088 75.1211 30.2104 73.74 29.9289 72.2943C29.6055 70.6278 29.5674 68.95 29.8566 67.2645C30.2903 64.7345 31.3708 62.5278 33.1286 60.6597C33.3873 60.382 33.509 60.1004 33.5052 59.7161C33.4862 57.8252 33.4976 55.9381 33.4976 54.0472C33.4976 53.9445 33.4938 53.8456 33.4938 53.7429C33.4938 53.5564 33.4101 53.4575 33.2199 53.4575C33.1324 53.4575 33.0411 53.4575 32.9536 53.4575C22.4033 53.4575 11.8492 53.4575 1.29897 53.4575C1.03265 53.4575 0.766325 53.4575 0.5 53.4537C0.5 52.6167 0.5 51.7797 0.5 50.9427C0.754911 50.9427 1.00602 50.9389 1.26093 50.9389C11.8226 50.9389 22.3843 50.9389 32.9497 50.9389C32.9764 50.9389 32.9992 50.9389 33.0258 50.9389C33.4824 50.935 33.4976 50.9274 33.4976 50.4709C33.4976 49.1659 33.4976 47.8571 33.4976 46.5521C33.4976 46.476 33.4976 46.3999 33.4976 46.3238C33.5052 45.9662 33.5433 45.9281 33.8895 45.9205C34.1824 45.9167 34.4716 45.9205 34.7646 45.9205C35.0689 45.9205 35.3733 45.9129 35.6777 45.9205C35.9554 45.9281 36.0011 45.9776 36.0163 46.2591C36.0239 46.3733 36.0201 46.4874 36.0201 46.6016C36.0201 51.3307 36.0163 56.0599 36.0277 60.7891C36.0277 61.1505 35.9288 61.4092 35.6586 61.6489C34.445 62.7294 33.5585 64.0496 32.9536 65.5487C32.3943 66.9412 32.1622 68.3945 32.1964 69.8974C32.2307 71.5181 32.5845 73.0666 33.2617 74.5314C34.3841 76.9702 36.1114 78.8535 38.535 80.0557C40.1329 80.8471 41.8298 81.1781 43.6103 81.1629C44.8278 81.1515 46.0149 80.9841 47.1639 80.596C49.0281 79.9644 50.6033 78.8839 51.893 77.3963C53.1333 75.962 53.9666 74.3222 54.4421 72.4883C54.7998 71.1034 54.8797 69.7033 54.7237 68.2994C54.522 66.4808 53.8943 64.8029 52.8023 63.3267C52.3838 62.7599 51.8892 62.2424 51.4098 61.7212C51.2234 61.5195 51.1321 61.3255 51.1359 61.0478C51.1435 56.155 51.1397 51.2584 51.1397 46.3657C51.1397 46.301 51.1435 46.2401 51.1397 46.1754C51.1359 45.989 51.2234 45.8901 51.4136 45.8939C51.5011 45.8939 51.5925 45.8939 51.68 45.8939C55.4466 45.8939 59.2131 45.8939 62.9797 45.8939C70.6651 45.8977 78.3467 45.8977 86.032 45.9053C86.188 45.9053 86.344 45.9662 86.5 45.9966C86.4924 46.7576 86.4924 47.5185 86.4924 48.2794Z" fill="#EE7632"/>
<path d="M0.509583 45.9206C0.737861 45.913 0.966139 45.9016 1.19061 45.9016C10.9115 45.9016 20.6361 45.9016 30.357 45.9016C30.5091 45.9016 30.6575 45.9016 30.7983 45.9016C30.92 46.1908 30.9391 47.9675 30.8249 48.4203C30.6918 48.4203 30.5434 48.4203 30.3988 48.4203C23.9994 48.4203 17.5962 48.4203 11.1968 48.4203C7.86395 48.4203 4.53108 48.4203 1.19442 48.4203C0.966139 48.4203 0.737861 48.4279 0.509583 48.4317C0.509583 47.5947 0.509583 46.7577 0.509583 45.9206Z" fill="#EE7632"/>
<path d="M86.4962 53.3778C86.3896 53.4044 86.2793 53.4539 86.1728 53.4539C84.6395 53.4577 83.1024 53.4577 81.5692 53.4577C81.4969 53.4577 81.4208 53.4425 81.3523 53.4349C81.2534 53.1077 81.2534 51.2929 81.3561 50.9581C81.4588 50.9543 81.5692 50.9428 81.6833 50.9428C83.1557 50.9428 84.6243 50.939 86.0967 50.9466C86.2298 50.9466 86.363 50.9961 86.4962 51.0227C86.4962 51.8065 86.4962 52.5903 86.4962 53.3778Z" fill="#EE7632"/>
<path d="M61.0465 0.36792C61.1759 0.463036 61.2748 0.52391 61.3585 0.596198C62.1575 1.28103 62.9526 1.96587 63.7516 2.65451C63.9989 2.86757 63.9989 2.89039 63.782 3.18335C62.3515 5.11991 60.9933 7.10593 59.7149 9.14902C58.155 11.6411 56.7359 14.213 55.4765 16.8686C54.6357 18.6416 53.8748 20.445 53.1976 22.2902C52.6421 23.8007 52.1399 25.3225 51.6909 26.8672C51.2039 28.5336 50.7816 30.2153 50.4278 31.9122C50.0587 33.6851 49.7544 35.4695 49.5109 37.2691C49.1951 39.6204 48.9706 41.9754 48.8222 44.3457C48.6434 47.2334 48.5407 50.1212 48.5369 53.0127C48.5331 56.0678 48.5407 59.1229 48.5293 62.1819C48.5293 62.4938 48.6282 62.6841 48.8793 62.8705C50.0739 63.757 50.9642 64.8908 51.554 66.2604C52.1741 67.691 52.3758 69.19 52.2007 70.7233C51.9458 72.9604 51.0936 74.9274 49.3815 76.453C48.3428 77.3814 47.1292 77.9863 45.7747 78.3249C44.4735 78.6521 43.1647 78.713 41.8521 78.4505C38.8959 77.8646 36.7006 76.2704 35.4718 73.4816C34.7679 71.8837 34.5358 70.183 34.7869 68.4595C35.1217 66.1653 36.2365 64.2934 38.0893 62.8857C38.3404 62.6955 38.4394 62.5014 38.4394 62.1895C38.4394 59.6137 38.4203 57.0418 38.4736 54.4699C38.504 52.9138 38.6258 51.3539 38.7437 49.8016C38.8465 48.4357 38.9834 47.0736 39.1394 45.7154C39.2574 44.6957 39.4172 43.6837 39.5732 42.6679C39.6987 41.8423 39.8243 41.0129 39.9764 40.1911C40.1553 39.2323 40.3531 38.2773 40.5586 37.3262C40.7412 36.4739 40.939 35.6217 41.1483 34.7733C41.3195 34.0732 41.5021 33.3731 41.6999 32.6807C41.9396 31.8399 42.1907 31.0029 42.4609 30.1734C42.8604 28.9598 43.2484 27.7423 43.7012 26.5476C44.2567 25.0943 44.8388 23.6485 45.4817 22.2332C46.1894 20.6771 46.9389 19.14 47.7379 17.6334C49.3282 14.6277 51.1735 11.778 53.2204 9.06532C55.4233 6.14336 57.8468 3.41924 60.4948 0.892959C60.6737 0.721751 60.8487 0.558152 61.0465 0.36792ZM57.5691 7.8212C57.512 7.8212 57.4816 7.80979 57.4702 7.8212C57.3827 7.90871 57.2913 8.00002 57.2114 8.09514C54.9857 10.7546 52.9845 13.57 51.2229 16.5567C49.8875 18.8128 48.6776 21.1374 47.6466 23.5496C47.0911 24.8508 46.5432 26.1596 46.0486 27.4874C45.5997 28.682 45.2116 29.9033 44.8235 31.117C44.5648 31.9236 44.3366 32.7416 44.1121 33.5596C43.899 34.3281 43.6898 35.0966 43.5071 35.8728C43.3017 36.7364 43.1115 37.6001 42.9365 38.4676C42.7272 39.4834 42.5141 40.503 42.3505 41.5265C42.1337 42.8771 41.9434 44.2316 41.7798 45.5898C41.6086 47.0128 41.4336 48.4357 41.3423 49.8624C41.2053 52.0235 41.0988 54.1921 41.0532 56.357C40.9999 58.7539 41.0227 61.1508 41.0265 63.5439C41.0265 63.8597 40.9352 64.0423 40.6499 64.2059C39.1166 65.0696 38.1046 66.3593 37.6594 68.06C37.2523 69.6237 37.4197 71.1532 38.1084 72.618C39.6835 75.9775 43.6289 77.1341 46.8628 75.1519C48.2896 74.2768 49.1799 72.9832 49.5755 71.3586C49.9142 69.9623 49.8228 68.5927 49.2445 67.2687C48.6624 65.9408 47.7075 64.9554 46.4519 64.263C46.1552 64.0994 46.0448 63.9168 46.0448 63.5782C46.0562 61.1051 46.0562 58.6321 46.0524 56.1591C46.0448 52.2517 46.1247 48.3482 46.3644 44.4522C46.4253 43.4516 46.509 42.4548 46.6003 41.458C46.6688 40.6895 46.7563 39.9209 46.8514 39.1524C46.9808 38.0833 47.1025 37.0142 47.2623 35.9489C47.4335 34.8227 47.6428 33.7003 47.852 32.5818C48.0271 31.6611 48.2021 30.7403 48.4227 29.831C48.7119 28.6364 49.0239 27.4493 49.3587 26.2699C49.6973 25.0904 50.0473 23.9148 50.443 22.7544C50.8311 21.6168 51.2762 20.5021 51.7099 19.3797C52.3796 17.6448 53.1557 15.9517 53.9851 14.2853C55.0314 12.1889 56.1614 10.1382 57.4093 8.15221C57.4587 8.04948 57.5082 7.93915 57.5691 7.8212Z" fill="#EE7632"/>
<path d="M36.8312 25.676C36.6828 25.7864 36.6105 25.851 36.5268 25.8967C34.3962 27.0647 32.2656 28.2366 30.1274 29.397C29.8687 29.5377 29.6899 29.7204 29.5529 29.9715C28.4116 32.0716 27.2587 34.168 26.1097 36.2681C26.0717 36.3366 26.0451 36.4089 26.0032 36.4698C25.9157 36.5953 25.8168 36.5992 25.7331 36.4774C25.6836 36.4051 25.6494 36.3214 25.6075 36.2453C24.4661 34.1566 23.3209 32.0716 22.1834 29.9829C22.0388 29.7166 21.8562 29.5301 21.5822 29.3818C19.4554 28.2328 17.3363 27.0647 15.2171 25.9005C15.1258 25.8511 15.0497 25.775 14.9165 25.6722C15.3046 25.4554 15.628 25.2689 15.959 25.0863C17.8385 24.0591 19.7141 23.0318 21.5974 22.016C21.8676 21.8714 22.0464 21.6698 22.1872 21.4034C23.3362 19.2919 24.4928 17.1841 25.6494 15.0763C25.6684 15.0421 25.6798 15.0078 25.6988 14.9736C25.8168 14.7796 25.9119 14.7719 26.0222 14.9698C26.3076 15.4758 26.5815 15.9894 26.8631 16.5031C27.7724 18.1695 28.6817 19.8359 29.591 21.5024C29.6937 21.6926 29.8307 21.841 30.0323 21.9513C32.1477 23.0965 34.2555 24.2569 36.367 25.4097C36.4926 25.482 36.622 25.5581 36.8312 25.676ZM20.1593 25.6722C20.3039 25.7788 20.3952 25.8549 20.4941 25.9119C21.5023 26.4674 22.5106 27.0267 23.5226 27.5707C23.7357 27.6849 23.8802 27.8409 23.9944 28.0463C24.2835 28.5828 24.5727 29.1154 24.8618 29.6481C25.1358 30.1465 25.4059 30.6487 25.6836 31.1433C25.8168 31.383 25.9005 31.3792 26.0375 31.1395C26.0641 31.0976 26.0869 31.052 26.1097 31.0063C26.6424 30.0285 27.1788 29.0546 27.7115 28.0768C27.8371 27.8485 27.9968 27.6811 28.2365 27.5555C29.2638 27.0115 30.2834 26.4446 31.3031 25.8815C31.383 25.8396 31.44 25.7597 31.5466 25.6646C31.3906 25.5695 31.2879 25.5048 31.1813 25.444C30.2149 24.9151 29.2524 24.3863 28.2784 23.8688C28.0083 23.7243 27.8256 23.534 27.6811 23.2639C27.1484 22.2595 26.5929 21.2627 26.0413 20.2658C25.9994 20.1859 25.9309 20.1213 25.8472 20.0147C25.7673 20.1289 25.7103 20.1936 25.6722 20.2696C25.1167 21.2779 24.5613 22.2861 24.0172 23.2981C23.8878 23.5416 23.7204 23.7243 23.4731 23.8536C22.7122 24.2531 21.9589 24.6678 21.2018 25.0825C20.8784 25.2689 20.5512 25.4516 20.1593 25.6722Z" fill="#EE7632"/>
<path d="M63.6834 32.0413C63.3905 32.0413 63.1013 32.0451 62.8083 32.0413C62.504 32.0375 62.4659 32.0109 62.4621 31.7255C62.4545 31.094 62.4545 30.4586 62.4621 29.827C62.4659 29.5569 62.504 29.5226 62.7779 29.5188C63.3334 29.515 63.8927 29.5188 64.4481 29.5188C64.5357 29.5188 64.627 29.515 64.7145 29.515C64.8857 29.515 64.9732 29.4275 64.9732 29.2601C64.977 29.0585 64.977 28.853 64.977 28.6514C64.977 28.2215 64.9732 27.7915 64.9808 27.3578C64.9846 27.0306 65.015 27.0002 65.3232 27.0002C65.932 26.9964 66.5407 26.9964 67.1456 27.0002C67.4614 27.004 67.4957 27.0382 67.4957 27.354C67.4995 27.8981 67.4957 28.4421 67.4957 28.9862C67.4957 29.0737 67.4995 29.165 67.4995 29.2525C67.4995 29.4427 67.587 29.5226 67.781 29.5188C68.3365 29.5112 68.8958 29.515 69.4512 29.515C69.5388 29.515 69.6301 29.5112 69.7176 29.515C69.9649 29.5303 70.0029 29.5645 70.0143 29.808C70.0219 30.0477 70.0143 30.2874 70.0143 30.5309C70.0143 30.8999 70.0181 31.2652 70.0143 31.6342C70.0105 32.0109 69.9839 32.0375 69.5958 32.0413C69.0137 32.0451 68.4316 32.0413 67.8495 32.0413C67.5337 32.0413 67.5033 32.0679 67.4995 32.3875C67.4957 32.9696 67.4995 33.5518 67.4957 34.1339C67.4957 34.5257 67.469 34.5562 67.0962 34.56C66.5027 34.5638 65.9053 34.5638 65.3118 34.56C65.0188 34.5562 64.9808 34.5219 64.9808 34.229C64.9732 33.6355 64.9808 33.0381 64.977 32.4446C64.9732 32.0794 64.9466 32.0489 64.5927 32.0451C64.2922 32.0375 63.9878 32.0413 63.6834 32.0413Z" fill="#EE7632"/>
<path d="M17.0653 33.1069C17.0653 33.4113 17.0729 33.7156 17.0615 34.0162C17.0538 34.2559 17.012 34.3091 16.7685 34.313C16.1103 34.3206 15.4521 34.3168 14.7939 34.3168C14.6189 34.3168 14.539 34.2292 14.5428 34.058C14.5428 33.3998 14.539 32.7416 14.5504 32.0834C14.5542 31.8475 14.6113 31.7981 14.851 31.7943C15.4825 31.7867 16.1141 31.7867 16.7495 31.7943C17.0082 31.7981 17.0538 31.8514 17.0615 32.1139C17.0729 32.4525 17.0653 32.7797 17.0653 33.1069Z" fill="#EE7632"/>
<path d="M17.0704 16.9442C17.0704 17.26 17.0666 17.5757 17.0704 17.8953C17.0742 18.0894 16.9829 18.1769 16.7965 18.1769C16.1269 18.1769 15.4535 18.1769 14.7838 18.1769C14.6279 18.1769 14.5518 18.097 14.5518 17.941C14.5518 17.2714 14.5556 16.5979 14.5556 15.9283C14.5556 15.7343 14.6545 15.6582 14.8409 15.6582C15.4877 15.662 16.1345 15.6544 16.7775 15.662C17.021 15.6658 17.0628 15.7153 17.0704 15.9588C17.078 16.286 17.0704 16.617 17.0704 16.9442Z" fill="#EE7632"/>
<path d="M75.011 23.1879C75.011 23.5037 75.0186 23.8195 75.0071 24.1353C74.9995 24.4092 74.9425 24.4739 74.6685 24.4777C74.0484 24.4853 73.432 24.4853 72.8119 24.4777C72.557 24.4739 72.4961 24.4168 72.4923 24.1619C72.4847 23.5303 72.4847 22.8988 72.4923 22.2672C72.4961 22.0313 72.5532 21.9704 72.7852 21.9666C73.4168 21.959 74.0484 21.959 74.6799 21.9666C74.9501 21.9704 74.9995 22.0313 75.0071 22.3167C75.0186 22.6058 75.0148 22.895 75.011 23.1879Z" fill="#EE7632"/>
<path d="M73.7098 39.5897C73.4206 39.5897 73.1276 39.5935 72.8385 39.5897C72.5493 39.5821 72.4961 39.5402 72.4923 39.2625C72.4847 38.6423 72.4847 38.026 72.4923 37.4058C72.4961 37.1281 72.5493 37.0748 72.8347 37.0748C73.4396 37.0672 74.0484 37.0672 74.6533 37.0748C74.9501 37.0786 75.0033 37.1357 75.0071 37.44C75.0147 38.0336 75.0147 38.6271 75.0071 39.2206C75.0033 39.5364 74.9501 39.5859 74.6229 39.5897C74.3147 39.5935 74.0103 39.5897 73.7098 39.5897Z" fill="#EE7632"/>
<path d="M8.28477 63.5552C9.09516 63.5552 9.88652 63.5552 10.7311 63.5552C10.7464 64.3808 10.7388 65.1836 10.735 65.9711C10.4458 66.0662 8.78698 66.0929 8.29238 66.0206C8.20107 65.7466 8.18585 63.9623 8.28477 63.5552Z" fill="#EE7632"/>
<path d="M18.374 63.5588C19.1577 63.5588 19.9491 63.5588 20.7366 63.5588C20.8432 63.8099 20.8698 65.5258 20.7709 66.0319C19.9795 66.0775 19.1805 66.0433 18.393 66.0547C18.2827 65.7237 18.275 63.9279 18.374 63.5588Z" fill="#EE7632"/>
<path d="M66.1902 66.0281C66.1902 65.1987 66.1902 64.3959 66.1902 63.5551C67.012 63.5094 67.811 63.5437 68.5985 63.5323C68.7051 63.8785 68.7127 65.6781 68.6137 66.0281C67.8148 66.0281 67.0158 66.0281 66.1902 66.0281Z" fill="#EE7632"/>
<path d="M76.3092 63.5588C77.1196 63.5588 77.9109 63.5588 78.7327 63.5588C78.7327 64.3882 78.7327 65.1872 78.7327 66.0319C77.9147 66.0775 77.1158 66.0547 76.3244 66.0471C76.2179 65.7275 76.2103 63.9279 76.3092 63.5588Z" fill="#EE7632"/>
<path d="M81.2928 60.9223C81.2738 60.0967 81.2738 59.2939 81.2928 58.4759C81.3994 58.453 81.4716 58.4302 81.5401 58.4264C82.1869 58.4226 82.8337 58.4264 83.4805 58.4226C83.6441 58.4226 83.7963 58.4302 83.7963 58.6471C83.7963 59.3547 83.7925 60.0662 83.7887 60.7739C83.7887 60.8195 83.7544 60.8652 83.7316 60.9184C82.9326 60.9223 82.1413 60.9223 81.2928 60.9223Z" fill="#EE7632"/>
<path d="M24.5974 58.4226C24.9284 58.4226 25.2556 58.4264 25.5866 58.4226C25.7806 58.4188 25.8605 58.5063 25.8605 58.6965C25.8567 59.3547 25.8643 60.0129 25.8567 60.6711C25.8529 60.9184 25.8149 60.9451 25.5561 60.9451C24.9246 60.9489 24.2892 60.9489 23.6576 60.9451C23.3913 60.9451 23.3533 60.9184 23.3495 60.6787C23.3418 60.0205 23.3418 59.3623 23.3495 58.7041C23.3533 58.4606 23.3913 58.434 23.65 58.4264C23.9658 58.4188 24.2816 58.4226 24.5974 58.4226Z" fill="#EE7632"/>
<path d="M71.2042 59.6936C71.2042 59.3778 71.2004 59.0621 71.2042 58.7425C71.2118 58.4609 71.2385 58.4267 71.5048 58.4267C72.1364 58.4229 72.7718 58.4229 73.4033 58.4267C73.6811 58.4305 73.7115 58.4571 73.7153 58.7311C73.7229 59.3626 73.7229 59.998 73.7153 60.6296C73.7115 60.9149 73.6811 60.9415 73.4147 60.9454C72.7679 60.9492 72.1212 60.9415 71.4782 60.9492C71.2803 60.953 71.2004 60.8693 71.2004 60.6828C71.2042 60.3518 71.2042 60.0208 71.2042 59.6936Z" fill="#EE7632"/>
<path d="M4.4202 60.9451C4.10442 60.9451 3.78863 60.9375 3.46904 60.9489C3.27501 60.9565 3.1875 60.8804 3.1875 60.6864C3.1875 60.0167 3.1875 59.3433 3.1875 58.6737C3.1875 58.5025 3.2674 58.4226 3.44241 58.4264C4.10061 58.4302 4.75881 58.4302 5.41702 58.4264C5.60344 58.4264 5.70236 58.4949 5.69856 58.6889C5.69476 59.3585 5.69856 60.032 5.69856 60.7016C5.69856 60.8728 5.62247 60.9527 5.44365 60.9489C5.10504 60.9413 4.76262 60.9451 4.4202 60.9451Z" fill="#EE7632"/>
<path d="M15.7146 60.9262C14.9194 60.9262 14.1394 60.9262 13.3633 60.9262C13.2454 60.6637 13.2149 58.9364 13.3215 58.4722C13.3747 58.457 13.4318 58.4266 13.4927 58.4266C14.1623 58.4227 14.8357 58.4266 15.5053 58.4189C15.6994 58.4189 15.7831 58.495 15.7831 58.6853C15.7792 59.3549 15.7831 60.0283 15.7792 60.6979C15.7792 60.774 15.7412 60.8425 15.7146 60.9262Z" fill="#EE7632"/>
<path d="M61.1424 58.4226C61.424 58.4226 61.637 58.4226 61.8463 58.4226C62.3523 58.4226 62.8583 58.4264 63.3643 58.4226C63.5241 58.4226 63.6459 58.4607 63.6459 58.6471C63.6459 59.3547 63.6421 60.0662 63.6383 60.7739C63.6383 60.8195 63.604 60.8652 63.5698 60.9451C63.3111 60.9451 63.0486 60.9451 62.786 60.9451C62.3295 60.9451 61.8729 60.9451 61.4202 60.9489C61.2832 60.9489 61.1462 60.9375 61.1462 60.7663C61.1386 60.0053 61.1424 59.2482 61.1424 58.4226Z" fill="#EE7632"/>
<path d="M76.2443 53.4579C76.2405 52.6019 76.2328 51.7991 76.2519 50.9887C76.3508 50.9659 76.4117 50.943 76.4725 50.943C77.1307 50.9392 77.7889 50.9392 78.4509 50.943C78.7211 50.943 78.7553 50.9697 78.7591 51.2132C78.7667 51.8714 78.7629 52.5296 78.7629 53.1916C78.7629 53.3514 78.7249 53.4655 78.5308 53.4655C77.7927 53.4541 77.0623 53.4579 76.2443 53.4579Z" fill="#EE7632"/>
</svg>
