<svg width="110" height="17" viewBox="0 0 110 17" fill="none" xmlns="http://www.w3.org/2000/svg">
<g clip-path="url(#clip0_1_725)">
<path d="M8.55696 13.6975L12.707 16.2075C13.467 16.6675 14.397 15.9875 14.197 15.1275L13.097 10.4075L16.767 7.2275C17.437 6.6475 17.077 5.5475 16.197 5.4775L11.367 5.0675L9.47696 0.6075C9.13696 -0.2025 7.97696 -0.2025 7.63696 0.6075L5.74696 5.0575L0.916957 5.4675C0.0369575 5.5375 -0.323043 6.6375 0.346957 7.2175L4.01696 10.3975L2.91696 15.1175C2.71696 15.9775 3.64696 16.6575 4.40696 16.1975L8.55696 13.6975Z" fill="#EE7632"/>
<path d="M31.6709 13.6975L35.8209 16.2075C36.5809 16.6675 37.5109 15.9875 37.3109 15.1275L36.2109 10.4075L39.8809 7.2275C40.5509 6.6475 40.1909 5.5475 39.3109 5.4775L34.4809 5.0675L32.5909 0.6075C32.2509 -0.2025 31.0909 -0.2025 30.7509 0.6075L28.8609 5.0575L24.0309 5.4675C23.1509 5.5375 22.7909 6.6375 23.4609 7.2175L27.1309 10.3975L26.0309 15.1175C25.8309 15.9775 26.7609 16.6575 27.5209 16.1975L31.6709 13.6975Z" fill="#EE7632"/>
<path d="M54.7848 13.6975L58.9348 16.2075C59.6948 16.6675 60.6248 15.9875 60.4248 15.1275L59.3248 10.4075L62.9948 7.2275C63.6648 6.6475 63.3048 5.5475 62.4248 5.4775L57.5948 5.0675L55.7048 0.6075C55.3648 -0.2025 54.2048 -0.2025 53.8648 0.6075L51.9748 5.0575L47.1448 5.4675C46.2648 5.5375 45.9048 6.6375 46.5748 7.2175L50.2448 10.3975L49.1448 15.1175C48.9448 15.9775 49.8748 16.6575 50.6348 16.1975L54.7848 13.6975Z" fill="#EE7632"/>
<path d="M77.8987 13.6975L82.0487 16.2075C82.8087 16.6675 83.7387 15.9875 83.5387 15.1275L82.4387 10.4075L86.1087 7.2275C86.7787 6.6475 86.4187 5.5475 85.5387 5.4775L80.7087 5.0675L78.8187 0.6075C78.4787 -0.2025 77.3187 -0.2025 76.9787 0.6075L75.0887 5.0575L70.2587 5.4675C69.3787 5.5375 69.0187 6.6375 69.6887 7.2175L73.3587 10.3975L72.2587 15.1175C72.0587 15.9775 72.9887 16.6575 73.7487 16.1975L77.8987 13.6975Z" fill="#EE7632"/>
<path d="M101.013 13.6975L105.163 16.2075C105.923 16.6675 106.853 15.9875 106.653 15.1275L105.553 10.4075L109.223 7.2275C109.893 6.6475 109.533 5.5475 108.653 5.4775L103.823 5.0675L101.933 0.6075C101.593 -0.2025 100.433 -0.2025 100.093 0.6075L98.2026 5.0575L93.3726 5.4675C92.4926 5.5375 92.1326 6.6375 92.8026 7.2175L96.4726 10.3975L95.3726 15.1175C95.1726 15.9775 96.1026 16.6575 96.8626 16.1975L101.013 13.6975Z" fill="#EE7632"/>
</g>
<defs>
<clipPath id="clip0_1_725">
<rect width="109.57" height="16.3558" fill="white"/>
</clipPath>
</defs>
</svg>
